<svg width="284" height="196" viewBox="0 0 284 196" fill="none" xmlns="http://www.w3.org/2000/svg">
<path d="M274.001 34.7911C273.812 35.4575 273.593 36.0145 273.215 36.2333C272.847 36.4571 272.215 37.6805 272.807 37.5363C272.852 37.5264 272.892 37.5115 272.932 37.4965C272.459 38.5608 271.673 39.5206 270.584 40.013C269.674 40.4407 268.834 40.4854 267.914 40.7788C267.148 41.0225 266.248 41.5795 265.462 41.1966C265.417 41.2364 265.382 41.2811 265.357 41.3408C265.163 41.2314 264.945 41.1817 264.527 41.1817C263.781 41.1817 263.224 40.8385 262.523 40.8037C261.324 40.744 260.24 41.9276 259.355 42.6289C258.634 43.2008 258.062 42.783 257.296 43.1461C256.948 43.3152 256.401 44.2949 256.142 44.6579C255.172 45.9808 256.212 46.9854 256.878 48.1192C257.594 49.3277 258.385 50.4417 257.724 51.7696C257.415 52.3813 256.988 52.8885 256.585 53.4306C256.227 53.9031 255.476 54.475 255.421 55.0121C255.336 55.8078 256.028 55.9669 256.386 56.5289C256.828 57.2102 256.644 57.6777 256.311 58.3789C255.63 59.8162 255.138 60.4478 253.342 60.4577C252.696 60.4577 252.208 60.5074 251.94 59.8758C251.244 59.6819 250.254 59.3537 249.871 60.1543C249.528 60.8705 250.184 62.0939 250.95 62.1536C251.522 63.2427 252.711 64.6899 251.482 65.5254C250.289 66.341 248.772 65.6348 248.598 67.4749C248.449 69.0166 247.976 70.4041 247.897 71.9259C247.862 72.6818 248.056 73.5272 247.902 74.1986C247.762 74.8053 247.24 75.3773 246.892 75.8696C246.231 75.422 246.39 74.3528 245.306 74.6661C244.952 74.7656 244.739 75.2032 244.341 75.2877C244.032 75.3474 243.401 75.1336 243.078 75.0639C242.133 74.865 241.715 74.691 240.989 75.5812C240.536 76.1282 240.069 76.6305 239.492 77.1626C239.646 77.2372 239.76 77.4163 239.974 77.4759C239.935 78.3015 237.055 79.873 236.707 79.0624C236.423 79.0574 235.469 78.8436 235.265 78.9629C235.006 79.1071 234.912 79.7835 234.743 80.0272C234.34 80.6439 233.633 81.0268 233.265 81.7181C232.485 83.1802 233.002 85.5872 233.36 87.0493C233.484 87.5417 233.559 87.9395 233.559 87.9395C234.041 90.5703 227.134 90.1227 225.647 90.1227C222.687 90.1178 220.156 91.7639 217.237 91.8982C214.885 92.0175 212.07 92.301 209.896 91.7241C207.743 91.1522 205.595 90.3565 203.451 89.8393C203.402 89.8244 203.362 89.8194 203.312 89.8094C203.551 89.2077 204.272 88.6358 204.655 88.0141C205.058 87.3726 205.57 86.5172 206.266 86.0597C206.962 85.6021 206.863 84.9705 206.863 84.9705C207.067 84.4284 207.649 84.2047 207.872 83.7123C208.111 83.22 208.007 82.0811 207.952 81.5092C207.838 80.2709 207.236 79.0325 206.942 77.8688C205.918 77.4113 204.854 77.461 203.695 77.461C202.899 77.461 202.104 77.6699 201.616 76.9637C201.318 76.541 201.407 75.2977 201.328 74.7755C201.268 74.3428 201.198 74.2235 201.228 73.8903C201.243 73.6516 201.467 73.5073 201.432 73.0995C201.377 72.5575 201.004 71.6623 200.81 71.1451C200.383 70.0112 199.12 68.7231 199.05 67.5644C198.955 66.0426 201.044 65.4806 200.92 64.118C198.742 64.2871 198.289 62.4569 198.19 60.7412C198.155 60.1444 198.065 60.403 198.344 59.8311C198.473 59.5725 198.95 59.2244 198.96 58.8663C198.99 57.9811 197.603 57.9313 197.687 57.1008C198.354 57.3495 200.055 56.4294 200.273 55.8227C200.512 55.1563 200.134 54.7982 200.045 54.2164C199.95 53.6196 200.01 52.8487 200.035 52.237C200.055 51.8839 200.025 51.0783 200.194 50.6407C200.229 50.5511 200.263 50.4915 200.318 50.4368C200.681 50.0488 201.188 50.387 201.726 50.5561C202.243 50.7202 202.765 51.0335 203.312 51.0485C204.008 51.0733 204.257 50.5661 204.794 50.4566C206.177 50.1732 206.296 52.242 207.539 52.5603C208.673 52.8438 210.195 51.4911 210.732 50.5561C211.015 50.0687 211.08 49.1835 211.413 48.7757C211.776 48.3232 212.662 48.169 213.179 47.9601C213.756 47.7214 214.427 47.5424 214.984 47.2937C215.581 47.0351 215.924 46.5179 216.481 46.2245C217.54 45.6675 217.331 46.1499 217.451 44.9165C217.486 44.5584 217.744 43.3599 217.943 42.9372C218.256 42.2907 218.793 42.0967 218.938 41.3607C219.097 40.5252 218.52 40.1373 218.714 39.4609C218.978 38.5409 219.723 38.6802 220.519 38.4961C221.235 38.3221 221.723 37.9939 222.295 37.6955C222.807 37.4369 223.603 37.0042 224.15 36.7854C224.99 36.4472 224.985 36.7605 225.786 37.1932C226.656 36.6461 227.044 37.3772 227.914 37.1832C228.024 36.9843 228.098 36.7953 228.183 36.6113C228.203 36.676 228.223 36.7307 228.247 36.7903C228.988 36.6063 229.496 36.3726 230.212 36.8053C230.709 37.1136 230.873 37.964 231.366 38.2176C232.067 38.5707 232.718 37.785 233.35 37.5711C233.867 37.3971 234.345 37.4269 234.842 37.4617C234.867 38.2674 235.001 39.0134 235.449 39.2322C236.394 39.6698 238.318 39.9732 239.009 39.2322C239.701 38.4862 241.088 36.6113 241.586 37.1037C242.078 37.596 242.476 38.3271 242.993 38.2574C243.51 38.1779 244.032 38.4713 244.221 38.6205C244.405 38.7647 245.032 38.8045 244.848 38.2873C244.664 37.7651 243.699 36.7257 243.918 36.2483C244.142 35.7659 244.883 35.9499 245.141 35.731C245.405 35.5023 245.703 34.8757 246.037 34.9503C246.37 35.0199 246.703 35.9897 247.225 35.8007C247.742 35.6216 247.593 35.0249 247.931 34.8011C248.265 34.5773 248.449 34.2441 248.414 33.6821C248.379 33.1251 248.001 32.0857 248.563 31.7575C249.12 31.4293 249.712 31.0115 249.672 30.5739C249.632 30.1263 249.861 28.9775 250.343 28.7587C250.821 28.5349 251.791 28.6393 252.198 29.057C252.606 29.4648 253.531 29.4997 253.606 29.9472C253.68 30.3948 253.233 32.8764 253.68 32.9908C254.123 33.1002 255.202 33.0256 255.128 33.513C255.058 33.9904 255.058 38.4414 255.351 38.9238C255.65 39.4162 256.247 39.6648 256.207 40.0776C256.167 40.4854 256.575 41.485 257.057 41.6342C257.54 41.7784 258.987 41.3706 258.987 41.0772C258.987 40.7838 259.285 40.371 259.509 40.3362C259.728 40.3014 259.693 40.0776 259.917 39.7792C260.141 39.4808 261.026 39.3714 261.513 39.4162C262 39.446 262.18 38.3768 262.438 38.2674C262.692 38.153 262.478 37.3722 262.846 37.1534C263.224 36.9296 267.745 33.9606 267.889 34.6718C268.038 35.373 268.003 35.8902 268.555 35.8554C269.112 35.8156 270.341 36.0742 270.485 35.6316C270.634 35.184 271.042 34.5922 271.673 34.5922C272.295 34.6071 274.185 34.1247 274.001 34.7911Z" fill="white"/>
<path d="M283.718 70.2598C283.062 71.0754 282.346 71.7866 281.341 72.274C279.601 73.1095 277.323 74.0544 277.81 76.4067C278.278 78.6745 278.894 80.2609 277.487 82.5187C276.935 83.4089 275.92 83.777 275.697 84.7467C275.642 84.9904 276.089 85.6966 275.97 86.1889C275.891 86.5221 275.324 87.0841 275.105 87.3726C274.543 88.1136 273.762 88.8396 273.215 89.516C272.484 90.4211 272.429 91.3511 272.031 92.3308C271.305 94.1162 269.197 94.5837 268.441 96.4586C267.391 99.0546 267.436 100.014 264.467 100.636C263.204 100.9 261.498 101.869 260.16 101.611C259.872 100.089 258.266 99.522 257.052 100.636C256.147 101.467 255.54 103.043 254.755 104.127C254.317 104.729 252.556 106.947 252.865 107.723C253.282 108.787 256.664 107.907 257.733 108.339C257.699 109.424 258.116 110.125 258.206 111.129C258.295 112.189 258.062 112.96 258.837 113.76C259.748 114.705 260.653 114.059 261.632 114.536C262.751 115.093 262.344 115.6 262.239 116.6C263.293 116.794 263.567 119.773 263.885 120.743C264.124 121.464 264.671 122.314 264.005 123.01C263.602 123.428 262.483 123.17 261.921 123.761C261.513 123.453 261.438 122.896 261.603 122.438C260.429 122.359 258.619 123.811 257.286 124.005C255.481 124.279 253.581 124.124 251.701 124.209C251.413 125.711 249.234 126.198 249.602 127.775C249.244 128.222 249.13 128.461 248.434 127.879C247.941 127.461 247.399 126.959 246.713 126.855C245.902 126.725 245.156 127.183 244.41 126.929C243.694 126.7 243.714 125.656 242.869 125.81C242.804 125.482 242.928 125.204 243.207 125.069C242.903 124.363 242.779 123.727 242.705 122.861C242.63 121.996 242.152 121.464 241.456 120.991C241.407 120.215 241.526 119.778 240.685 120.166C240.432 120.28 240.377 120.464 240.034 120.554C239.76 120.628 239.353 120.559 239.079 120.539C239.537 119.211 238.706 117.465 237.443 116.918C235.971 116.277 234.618 117.843 233.121 117.162C232.38 116.824 232.733 116.704 231.957 117.072C231.609 117.237 231.047 117.56 230.694 117.664C230.088 117.843 229.874 117.43 229.287 117.366C228.645 117.296 228.173 117.48 227.681 117.759C227.303 117.963 227.004 118.51 226.621 118.634C226.199 118.768 225.617 118.271 225.229 118.157C224.707 118.012 224.284 118.181 223.816 117.813C223.598 117.639 223.886 117.167 223.284 117.286C222.986 117.351 222.896 117.525 222.976 117.868C222.086 118.037 222.21 117.222 221.504 117.142C220.718 117.057 220.658 117.734 220.385 118.246C219.48 118.296 218.774 118.365 217.868 118.271C217.103 118.196 216.004 118.057 215.561 118.768C215.044 118.798 214.825 118.51 214.243 118.634C213.825 118.714 213.109 118.838 212.741 119.057C212.393 119.266 212.184 119.788 211.717 119.663C211.165 119.519 211.433 118.917 211.264 118.495C210.986 118.44 210.732 118.539 210.523 118.704C210.518 118.709 210.518 118.709 210.513 118.714C210.493 118.728 210.483 118.738 210.473 118.748C210.399 117.908 210.831 117.346 210.831 116.481C210.831 115.695 210.419 114.869 210.618 114.188C211.284 113.541 210.996 112.626 211.349 111.801C211.746 110.866 212.194 110.771 213.054 110.314C213.457 110.105 213.8 109.588 214.223 109.409C214.661 109.225 215.267 109.23 215.725 109.061C216.272 108.857 216.725 108.747 217.277 108.986C217.734 109.185 217.908 109.722 218.525 109.19C218.948 108.827 218.958 108.205 218.933 107.708C218.908 107.315 218.968 106.35 218.744 106.037C218.639 105.883 217.769 105.38 217.555 105.296C216.978 105.057 216.536 105.42 215.954 105.336C215.531 104.445 215.68 103.466 215.437 102.516C215.317 102.038 215.178 101.616 215.123 101.123C215.088 100.84 215.272 99.7856 215.198 99.6364C215.029 99.2883 214.243 99.4226 213.875 99.2535C213.512 99.0794 213.263 98.7064 212.915 98.5125C212.124 98.0749 211.065 98.4727 210.235 97.9953C210.016 97.0653 208.574 97.0802 208.002 96.5182C207.38 95.9215 206.828 95.0263 206.365 94.2803C205.868 93.4846 205.48 92.848 204.869 92.0921C204.471 91.6047 203.541 90.5902 203.476 89.8393C205.62 90.3565 207.768 91.1522 209.921 91.7241C212.095 92.301 214.909 92.0125 217.262 91.8982C220.181 91.7639 222.712 90.1178 225.671 90.1227C227.158 90.1227 234.066 90.5753 233.584 87.9395C233.584 87.9395 233.509 87.5367 233.385 87.0493C233.027 85.5872 232.509 83.1802 233.29 81.7181C233.658 81.0218 234.36 80.6438 234.767 80.0272C234.936 79.7785 235.031 79.1071 235.289 78.9629C235.493 78.8436 236.443 79.0574 236.732 79.0624C237.075 79.873 239.959 78.3015 239.999 77.4759C239.785 77.4162 239.666 77.2372 239.517 77.1626C240.094 76.6355 240.561 76.1282 241.014 75.5811C241.74 74.6909 242.157 74.865 243.102 75.0639C243.431 75.1336 244.057 75.3474 244.366 75.2877C244.763 75.2032 244.982 74.7655 245.33 74.6661C246.415 74.3528 246.255 75.422 246.917 75.8696C247.265 75.3772 247.787 74.8053 247.926 74.1986C248.086 73.5272 247.892 72.6818 247.921 71.9259C248.001 70.4041 248.468 69.0165 248.623 67.4749C248.792 65.6348 250.313 66.341 251.507 65.5254C252.73 64.6899 251.547 63.2427 250.975 62.1536C250.214 62.0939 249.553 60.8705 249.896 60.1543C250.279 59.3537 251.268 59.6819 251.965 59.8758C252.233 60.5074 252.72 60.4577 253.367 60.4577C255.162 60.4478 255.65 59.8162 256.336 58.3789C256.669 57.6727 256.853 57.2102 256.411 56.5289C256.053 55.9669 255.361 55.8078 255.446 55.0121C255.505 54.475 256.251 53.9031 256.61 53.4306C257.012 52.8885 257.44 52.3813 257.748 51.7695C258.41 50.4417 257.619 49.3277 256.903 48.1192C256.241 46.9854 255.197 45.9808 256.167 44.6579C256.425 44.2949 256.973 43.3151 257.321 43.1461C258.087 42.783 258.654 43.2008 259.38 42.6288C260.265 41.9227 261.349 40.739 262.548 40.8037C263.249 40.8385 263.801 41.1816 264.552 41.1816C264.969 41.1816 265.188 41.2314 265.382 41.3408C265.278 41.5596 265.362 41.853 265.472 42.0718C264.905 42.7383 264.154 43.2952 263.433 43.892C262.901 44.3297 262.861 44.4043 262.97 45.1254C263.035 45.5779 263.105 46.2792 263.473 46.6323C264.388 47.5175 265.591 46.0603 266.511 46.7814C266.889 47.0848 266.954 47.6418 267.272 48.0198C267.58 48.3928 267.978 48.6414 268.371 48.9299C268.878 49.3078 269.948 49.7256 270.316 50.2428C270.559 50.5859 270.425 51.0634 270.763 51.3767C271.096 51.69 271.788 51.5955 272.23 51.6701C272.265 52.2122 272.414 52.8487 272.191 53.3063C271.927 53.8384 271.345 53.8185 270.987 54.1716C270.654 54.5098 270.634 55.0519 270.34 55.4597C269.908 56.0365 269.759 56.0515 269.724 56.8472C269.679 57.9761 270.4 58.7121 270.544 59.8112C270.614 60.3831 270.878 60.7213 271.042 61.2385C271.211 61.7408 271.221 62.3376 271.38 62.8299C271.534 63.3073 271.534 63.924 271.733 64.4164C271.887 64.7844 272.31 65.1971 272.603 65.5403C273.319 66.3907 274.12 66.7239 275.14 67.0173C276.045 67.2909 277.457 67.3456 278.024 68.1313C278.616 68.9519 278.83 69.9615 280.113 69.9018C280.943 69.857 281.704 69.1011 282.644 69.3696C282.908 69.4691 283.365 69.862 283.718 70.2598Z" fill="white"/>
<path d="M228.198 36.6313C228.113 36.8153 228.039 37.0092 227.929 37.2032C227.059 37.3922 226.671 36.6661 225.801 37.2131C225 36.7805 225.005 36.4671 224.165 36.8053C223.617 37.0291 222.822 37.4568 222.31 37.7154C221.743 38.0188 221.25 38.342 220.534 38.5161C219.738 38.7001 218.992 38.5609 218.729 39.4809C218.535 40.1523 219.107 40.5402 218.953 41.3806C218.808 42.1167 218.271 42.3057 217.958 42.9571C217.759 43.3799 217.5 44.5784 217.466 44.9365C217.346 46.1648 217.555 45.6824 216.496 46.2444C215.939 46.5378 215.596 47.06 214.999 47.3137C214.442 47.5673 213.771 47.7463 213.194 47.9801C212.676 48.1889 211.796 48.3381 211.428 48.7957C211.095 49.2084 211.03 50.0887 210.747 50.5761C210.21 51.511 208.688 52.8637 207.554 52.5802C206.311 52.262 206.196 50.1931 204.809 50.4766C204.272 50.586 204.023 51.0933 203.327 51.0684C202.78 51.0535 202.258 50.7402 201.74 50.5761C201.203 50.407 200.696 50.0638 200.333 50.4567C200.283 50.5064 200.249 50.5711 200.209 50.6606C199.647 49.8201 199.279 48.8155 199.269 47.806C199.249 46.2842 199.637 44.6033 197.886 44.2502C197.101 44.091 196.18 44.459 195.41 44.2502C194.559 44.0214 194.589 43.36 194.102 42.6637C193.425 41.689 192.659 40.5899 191.361 40.391C190.596 40.2766 189.621 40.6148 188.915 40.2716C188 39.824 188.407 39.3218 188.571 38.526C187.502 38.8244 187.129 38.2674 186.344 37.79C185.394 37.2181 184.886 37.6259 183.936 37.8149C182.464 38.1083 180.858 36.4174 179.411 36.119C179.401 36.0693 179.391 36.0096 179.381 35.9599C178.098 35.6565 177.168 34.6718 176.034 34.0402C175.407 33.6921 172.21 32.6875 172.259 34.1447C172.056 34.3486 171.936 34.5574 171.961 34.9404C170.593 35.1642 169.101 34.2839 167.838 34.9553C166.779 35.5222 165.829 36.3478 164.76 36.9296C164.118 37.2927 163.79 37.2231 163.367 37.9243C163.084 38.4017 163.004 39.0184 162.552 39.3764C161.567 40.1722 159.568 39.2223 158.901 40.4755C158.847 40.4556 158.797 40.4308 158.747 40.4009C158.036 39.9136 157.723 37.7602 157.434 37.0241C156.902 35.6267 157.146 34.1447 157.042 32.5831C156.992 31.8421 156.818 31.2204 156.748 30.5093C156.723 30.2208 156.748 29.5793 156.644 29.3257C156.42 28.7438 156.325 28.9974 155.848 28.6543C155.286 28.2415 155.097 27.2419 154.565 26.9634C154.366 26.859 152.894 26.7993 152.596 26.8689C152.69 27.2021 152.735 27.6547 152.66 28.0326C151.974 27.2966 151.447 26.6352 152.287 25.7649C152.968 25.0437 154.058 25.5062 155.142 25.4515C155.057 24.9791 154.719 24.6011 154.182 24.6608C154.087 24.4867 154.073 24.4867 153.983 24.3574C153.764 23.6015 154.058 22.7113 153.655 22.02C153.073 21.846 152.859 22.2985 152.387 22.398C151.904 22.5024 151.312 22.3831 150.815 22.4229C151.084 22.7262 151.317 23.144 151.183 23.5816C150.731 23.1689 150.169 22.8854 149.746 22.4776C148.781 21.5526 148.398 19.8816 148.333 18.5438C148.264 17.0668 149.259 15.6245 148.9 14.3116C148.408 12.5113 145.31 10.3977 145.151 8.31893C145.817 7.94594 148.652 5.70801 149.373 5.34C152.864 3.58447 157.419 4.95209 159.896 7.81167C160.945 9.0301 164.039 12.5461 165.511 11.2084C166.421 11.1338 167.067 11.0293 168.102 11.0293C169.171 11.0243 170.539 11.4172 171.548 11.0144C172.25 9.45779 170.837 8.94058 170.703 7.54809C170.598 6.5087 171.354 4.71338 172.354 4.29563C173.184 3.95248 173.543 4.14643 174.164 3.43029C174.766 2.744 174.587 2.20192 175.522 2.42074C176.109 2.55999 176.71 3.42035 177.327 2.84346C177.914 2.29144 177.143 1.59519 177.123 1.05809C178.993 0.302166 182.052 2.51523 183.658 3.38554C184.419 3.79831 185.926 4.45477 186.473 5.31016C186.796 5.82737 186.607 6.31971 187.114 6.75238C187.477 7.05574 188.139 7.20992 188.552 7.38895C189.775 7.92605 191.103 8.68197 192.301 9.27378C192.868 9.55228 193.435 9.95014 194.032 10.2137C194.977 10.6215 195.171 10.1143 195.962 10.0098C199.025 9.59207 199.314 14.4459 201.203 15.3908C201.198 16.644 201.735 18.0017 202.437 19.0113C203.312 20.2794 204.66 20.4883 205.893 21.2044C207.097 21.9156 208.196 22.8207 209.33 23.691C210.314 24.442 211.284 25.2277 212.368 25.7847C213.696 26.4611 215.193 26.8938 216.526 27.6596C217.684 28.326 218.888 29.0223 219.937 29.7882C221.036 30.5739 222.404 30.4993 223.692 31.0762C224.398 31.3895 224.935 31.2652 225.627 31.5188C226.134 31.6979 226.696 32.3245 227.014 32.6826C227.999 33.7418 227.715 35.2487 228.198 36.6313Z" fill="white"/>
<path d="M218.515 109.19C217.898 109.727 217.719 109.185 217.267 108.986C216.715 108.747 216.257 108.857 215.715 109.061C215.258 109.225 214.651 109.22 214.213 109.409C213.79 109.588 213.447 110.105 213.044 110.314C212.189 110.771 211.737 110.861 211.339 111.801C210.991 112.626 211.274 113.541 210.608 114.188C210.409 114.864 210.821 115.695 210.821 116.481C210.821 117.346 210.384 117.908 210.463 118.748C209.867 119.31 208.932 119.519 208.081 119.29C207.619 119.166 206.868 118.788 206.47 118.53C205.983 118.211 205.664 117.311 204.923 117.43C205.023 118.485 204.028 118.241 203.496 118.137C202.849 118.007 202.024 117.958 201.348 117.818C200.835 117.709 199.915 117.575 199.269 117.421C198.592 117.251 198.04 116.764 197.369 116.65C196.573 116.51 195.723 116.575 194.917 116.525C194.604 116.51 194.102 116.555 193.828 116.426C193.555 116.302 193.395 115.849 193.142 115.735C192.286 115.327 192.127 116.038 191.361 116.331C190.426 116.684 190.347 116.147 189.561 115.849C188.825 115.575 187.791 115.71 187.005 115.635C186.607 115.595 186.065 115.575 185.697 115.461C185.324 115.337 185.239 114.984 184.752 114.929C184.608 112.248 182.793 109.329 181.554 107.046C180.644 106.927 180.261 106.012 179.093 106.236C178.337 106.38 177.481 106.907 176.795 107.3C175.994 107.758 175.134 107.882 174.328 108.3C173.458 108.747 172.483 109.145 171.697 109.623C171.459 111.96 169.882 110.508 168.793 109.826C168.062 109.369 167.401 109.269 166.535 109.22C165.899 109.18 164.78 109.384 164.168 109.22C163.377 109.016 163.467 108.245 162.885 107.827C162.328 107.419 161.318 107.584 160.687 107.36C160.125 107.156 159.458 106.728 159.001 106.37C158.2 105.753 158.32 105.52 158.26 104.49C158.19 103.202 157.544 103.774 156.46 103.401C155.753 103.162 155.186 102.63 154.485 102.377C153.585 102.063 149.81 102.62 149.915 101.218C149.134 100.666 148.806 99.343 148.478 98.5025C148.015 97.304 147.279 97.1349 146.563 96.1502C146.981 96.0458 147.324 95.7623 147.05 95.2849C145.817 95.2053 145.409 95.2152 145.091 93.9769C144.842 93.027 144.604 92.4701 144.027 91.6047C143.166 90.3067 142.435 88.5512 141.162 87.666C140.968 87.9047 140.744 88.0439 140.625 88.3224C139.397 88.4418 139.078 89.3767 137.85 88.5611C136.84 87.8898 136.771 86.4873 135.513 86.6713C135.711 87.7306 136.318 88.5015 134.826 88.8595C133.21 89.2375 134.2 87.6113 132.852 87.6262C132.792 87.6262 132.723 87.6262 132.643 87.6361C132.489 86.9548 131.788 86.9747 131.34 86.6614C130.878 86.3431 130.599 85.811 130.35 85.2739C130.032 84.5925 130.057 83.8466 130.057 83.8466C130.097 83.6228 130.062 83.3492 130.032 83.1205C127.411 82.7773 127.192 79.5597 129.152 78.0628C128.804 77.4709 128.401 76.8393 128.252 76.153C126.655 75.4916 126.128 73.6665 124.716 73.015C123.214 72.3237 121.971 71.2644 120.414 70.4936C119.459 70.0261 118.778 70.9014 118.077 70.4637C117.162 69.8918 117.888 68.3551 117.569 67.5644C117.072 66.326 114.958 64.6202 113.919 64.2373C113.491 61.6164 114.953 59.8858 115.103 57.3146C115.61 57.1605 115.993 57.056 116.54 56.9715C116.61 55.6088 116.222 54.7783 115.993 53.6046C116.704 53.1869 117.48 53.1968 118.062 52.5503C116.077 51.1031 112.571 51.6303 110.736 49.6211C110.338 49.1885 110.204 48.4872 109.702 47.9899C109.378 47.6766 108.563 47.3036 108.364 46.9505C107.822 45.9758 108.777 43.3549 106.797 43.6284C106.817 43.4892 106.822 43.3499 106.822 43.2057C106.822 41.9027 106.196 40.3014 105.33 39.4609C104.962 39.1028 103.973 38.8243 103.804 38.3221C103.639 37.8198 104.196 36.671 104.256 36.0891C104.465 33.9705 103.222 33.6323 102.928 31.7923C102.814 31.0861 102.834 30.1213 102.63 29.4101C102.421 28.6592 101.76 28.2713 101.909 27.3661C102.436 27.2418 102.958 27.1473 103.49 27.023C103.535 26.282 103.222 25.0934 103.958 24.8149C104.072 24.7751 104.182 24.7602 104.281 24.7701C104.559 24.7801 104.788 24.9641 105.007 25.173C105.276 25.4117 105.534 25.6852 105.872 25.7349C106.459 27.4358 107.041 28.51 108.981 29.0023C109.09 31.7674 115.152 31.7873 116.679 30.8772C117.271 30.5241 117.405 29.7433 117.898 29.2659C118.305 28.868 119.156 28.5547 119.648 28.0524C120.17 27.5104 120.643 27.0528 121.314 26.7544C122.065 26.4163 122.831 26.7594 123.129 25.73C124.044 26.1726 124.726 27.1473 125.004 28.0574C123.612 28.5547 125.198 29.5892 125.86 29.8627C122.861 31.0861 125.86 32.7322 127.287 33.5677C127.71 33.8164 128.252 34.1098 128.724 34.4778C129.077 34.7414 129.386 35.0447 129.585 35.3879C130.251 36.5566 129.465 37.4716 129.644 38.7348C131.037 38.5508 130.609 39.3366 131.355 39.8438C131.852 40.1771 132.897 40.3611 133.474 40.3909C134.399 40.4406 135.14 40.0129 135.806 40.1273C136.343 40.2268 137.049 40.8733 137.746 41.0076C137.497 43.2903 140.232 43.6881 141.893 44.1307C143.922 44.6678 145.494 45.7271 147.866 45.5829C149.805 45.4685 151.775 44.6927 153.794 44.3993C154.784 44.2501 155.813 43.9219 156.917 44.091C157.897 44.2551 158.638 44.7971 159.697 44.3694C159.816 42.8477 159.046 41.7535 158.757 40.4008C158.812 40.4307 158.862 40.4556 158.911 40.4754C159.578 39.2222 161.582 40.1721 162.562 39.3764C163.014 39.0183 163.094 38.4016 163.377 37.9242C163.8 37.223 164.128 37.2926 164.77 36.9296C165.834 36.3477 166.789 35.5222 167.848 34.9552C169.111 34.2838 170.603 35.1641 171.971 34.9403C171.946 34.5623 172.06 34.3485 172.269 34.1446C172.22 32.6924 175.417 33.692 176.044 34.0401C177.173 34.6717 178.108 35.6564 179.391 35.9598C179.406 36.0095 179.411 36.0692 179.421 36.1189C180.868 36.4173 182.479 38.1082 183.946 37.8148C184.896 37.6208 185.404 37.218 186.353 37.7899C187.139 38.2673 187.512 38.8243 188.581 38.526C188.417 39.3217 188.009 39.824 188.925 40.2715C189.631 40.6147 190.605 40.2765 191.371 40.3909C192.669 40.5948 193.435 41.6889 194.112 42.6636C194.599 43.3599 194.569 44.0213 195.42 44.2501C196.19 44.459 197.11 44.0909 197.896 44.2501C199.647 44.6032 199.259 46.2841 199.279 47.8059C199.289 48.8155 199.657 49.8201 200.219 50.6605C200.055 51.0982 200.079 51.9038 200.059 52.2569C200.035 52.8736 199.97 53.6395 200.069 54.2362C200.159 54.8131 200.537 55.1762 200.298 55.8426C200.074 56.4493 198.379 57.3693 197.712 57.1207C197.633 57.9512 199.015 58.0059 198.985 58.8862C198.97 59.2442 198.493 59.5924 198.369 59.851C198.09 60.4229 198.18 60.1643 198.214 60.761C198.314 62.4818 198.766 64.3069 200.945 64.1378C201.069 65.5005 198.985 66.0625 199.075 67.5843C199.139 68.743 200.403 70.036 200.835 71.1649C201.029 71.6822 201.402 72.5773 201.457 73.1194C201.497 73.5272 201.273 73.6714 201.253 73.9101C201.228 74.2384 201.298 74.3627 201.353 74.7954C201.432 75.3176 201.343 76.5609 201.641 76.9836C202.128 77.6848 202.929 77.4809 203.72 77.4809C204.878 77.4809 205.943 77.4262 206.967 77.8887C207.256 79.0524 207.862 80.2907 207.977 81.5291C208.031 82.101 208.136 83.2398 207.897 83.7322C207.673 84.2245 207.087 84.4483 206.888 84.9904C206.888 84.9904 206.987 85.622 206.291 86.0795C205.595 86.5321 205.082 87.3924 204.68 88.034C204.297 88.6556 203.576 89.2275 203.337 89.8293C203.387 89.8392 203.426 89.8442 203.476 89.8591C203.536 90.6051 204.471 91.6246 204.869 92.112C205.48 92.8679 205.873 93.5045 206.365 94.3002C206.828 95.0462 207.38 95.9413 208.002 96.5381C208.574 97.1001 210.016 97.0852 210.235 98.0152C211.06 98.4876 212.124 98.0947 212.915 98.5324C213.263 98.7313 213.512 99.0993 213.875 99.2734C214.238 99.4425 215.029 99.3082 215.198 99.6563C215.272 99.8055 215.088 100.86 215.123 101.143C215.173 101.636 215.312 102.053 215.437 102.536C215.68 103.486 215.526 104.465 215.954 105.356C216.531 105.435 216.973 105.077 217.555 105.316C217.764 105.395 218.639 105.903 218.744 106.057C218.968 106.37 218.908 107.34 218.933 107.728C218.943 108.205 218.938 108.827 218.515 109.19Z" fill="white"/>
<path d="M115.232 27.2718C115.157 27.9531 115.704 28.2614 115.799 28.8433C115.854 29.1914 115.625 30.0965 115.426 30.3601C114.58 31.5288 113.601 30.1164 113.203 29.4351C112.76 28.6792 112.203 27.6149 111.497 27.1275C111.059 26.8391 110.497 26.8689 110.1 26.5258C109.622 26.1031 109.906 25.5809 109.567 25.1184C109.189 24.5862 108.523 24.7106 108.011 24.8697C107.399 25.0637 107.469 25.2477 106.827 24.7603C106.007 24.1386 105.251 24.2928 104.997 25.1681C104.778 24.9592 104.55 24.7752 104.271 24.7653C104.047 23.9248 103.694 23.2335 102.62 23.0346C101.551 22.8357 100.258 22.9152 99.2978 22.4179C98.2037 21.851 98.1739 20.6326 98.1739 19.4738C98.1739 18.887 98.2833 18.1858 98.1739 17.6188C98.0595 16.9922 97.6666 16.8082 97.2787 16.3606C96.9306 15.9578 96.8013 15.5251 96.483 15.0974C96.3288 14.8935 96.1001 14.7244 95.921 14.5305C96.3885 14.4559 96.9355 14.2271 97.3135 14.1376C97.8009 14.0232 99.1337 13.4712 99.3525 13.511C99.5763 13.5458 100.168 13.1728 100.392 13.327C100.616 13.4712 100.949 13.6204 101.357 13.6204C101.695 13.6204 103.739 13.695 104.41 13.6602C105.186 14.5305 106.151 14.6697 107.369 15.172C108.986 15.8434 107.996 17.6337 108.976 18.9019C109.513 19.5832 110.816 20.2148 110.776 21.11C110.761 21.6322 110.174 22.0599 110.124 22.5323C110.075 22.9501 110.403 23.6612 110.647 24.0044C111.199 24.7752 112.382 25.1283 113.228 25.4018C113.775 25.5809 114.322 25.7151 114.859 25.8544C115.51 26.0185 115.58 26.2721 116.107 26.6103C116.137 26.864 116.112 27.0977 116.033 27.3215C115.739 27.3364 115.515 27.2916 115.232 27.2718Z" fill="white"/>
<path d="M135.458 19.1704C134.916 19.255 134.533 19.6628 133.986 19.7771C133.399 19.9015 132.956 19.8865 132.409 20.1302C131.569 20.5032 130.883 21.3089 130.743 22.2339C130.644 22.8605 130.888 23.4623 130.798 24.074C130.714 24.6558 130.345 24.9791 130.35 25.6355C130.36 26.1876 130.743 26.6401 130.723 27.1176C130.713 27.4259 130.495 27.5353 130.445 27.7989C130.375 28.1022 130.475 28.4354 130.43 28.7438C130.365 29.1914 130.117 29.5594 130.117 29.9921C130.042 30.0169 129.982 30.0368 129.918 30.0716C129.744 29.6091 129.689 27.8188 128.883 28.2465C128.406 28.4852 128.371 30.4197 128.441 30.8972C128.505 31.3547 128.764 31.6879 128.789 32.1554C128.819 32.6676 128.739 33.1252 128.719 33.6374C128.709 33.9209 128.724 34.1994 128.709 34.4729C128.237 34.1049 127.69 33.8115 127.272 33.5628C125.845 32.7273 122.841 31.0812 125.845 29.8578C125.183 29.5842 123.597 28.5449 124.989 28.0525C124.711 27.1374 124.035 26.1627 123.114 25.7251C122.816 26.7545 122.05 26.4114 121.299 26.7495C120.633 27.0479 120.16 27.5055 119.633 28.0475C119.141 28.5498 118.291 28.8631 117.883 29.261C117.39 29.7384 117.251 30.5142 116.664 30.8723C115.138 31.7824 109.07 31.7625 108.966 28.9974C107.026 28.5051 106.444 27.4358 105.858 25.73C105.519 25.6803 105.256 25.4068 104.992 25.1681C105.246 24.2928 106.002 24.1386 106.822 24.7603C107.464 25.2476 107.394 25.0636 108.006 24.8697C108.523 24.7105 109.19 24.5862 109.563 25.1183C109.901 25.5808 109.617 26.108 110.095 26.5257C110.493 26.8689 111.055 26.8391 111.492 27.1275C112.203 27.6099 112.755 28.6742 113.198 29.4351C113.601 30.1164 114.576 31.5337 115.421 30.3601C115.62 30.0965 115.849 29.1864 115.794 28.8432C115.699 28.2614 115.152 27.958 115.227 27.2717C115.51 27.2916 115.734 27.3364 116.023 27.3215C116.102 27.0977 116.127 26.8639 116.097 26.6103C115.57 26.2721 115.501 26.0185 114.849 25.8544C114.307 25.7151 113.76 25.5808 113.218 25.4018C112.377 25.1283 111.194 24.7752 110.637 24.0043C110.393 23.6612 110.065 22.95 110.115 22.5323C110.169 22.0598 110.751 21.6321 110.766 21.11C110.806 20.2098 109.503 19.5832 108.966 18.9019C107.986 17.6387 108.976 15.8483 107.359 15.172C106.146 14.6647 105.176 14.5304 104.4 13.6601C104.535 13.6502 104.609 13.6353 104.609 13.6203C104.609 13.5109 104.46 12.9539 104.684 12.7301C104.908 12.5064 105.872 12.3969 106.201 12.2875C106.534 12.1732 107.354 12.1035 107.499 12.1731C107.648 12.2428 109.612 13.7298 110.169 13.7298C110.726 13.7298 112.875 13.6154 113.103 13.9884C113.317 14.3613 113.839 14.8437 114.103 14.7343C114.357 14.615 114.62 13.1379 114.287 12.6555C113.949 12.1682 112.208 10.9497 112.208 10.5768C112.208 10.2087 112.616 8.65214 113.024 8.68198C113.432 8.72674 114.73 8.86598 115.431 9.57715C116.137 10.2833 117.51 11.0194 117.584 11.3924C117.659 11.7604 118.102 12.5362 118.509 12.6158C118.917 12.6854 120.439 12.8694 120.588 12.5014C120.737 12.1383 121.11 11.7952 121.628 11.5764C122.15 11.3476 123.96 9.65175 124.144 9.23897C124.273 8.96047 124.472 8.63722 124.547 8.42834C125.914 9.6418 126.989 10.6862 127.665 12.4268C128.018 13.3369 128.376 14.1923 129.127 14.8935C129.505 15.2416 129.987 15.3361 130.316 15.7091C130.659 16.097 130.654 16.6341 131.096 17.017C132.181 17.947 135.453 16.9673 135.458 19.1704Z" fill="white"/>
<path d="M132.847 87.6312C132.638 88.1683 132.419 88.6905 132.136 88.9441C132.021 89.0485 131.902 89.1182 131.773 89.1629C130.694 89.5608 129.157 88.2976 128.003 88.77C126.884 89.2325 125.502 89.8741 125.014 91.1223C124.721 91.8633 124.84 92.5148 124.318 93.221C123.94 93.7283 123.403 94.3798 122.96 94.8025C122.93 94.8373 122.891 94.8671 122.851 94.897C121.891 95.638 119.723 95.27 118.385 95.27C116.818 95.27 114.939 95.5336 113.442 95.1755C112.258 94.887 111.005 94.0466 110.005 93.2708C108.936 92.4402 87.8496 77.8887 86.6511 77.1029C85.4724 76.3321 83.6671 76.0834 82.2995 76.0884C81.5038 76.0884 80.9817 75.984 80.5838 75.7403C80.0019 75.3872 79.7185 74.7307 79.3554 73.6913C78.883 72.3386 78.6293 70.9312 78.0226 69.6879C77.5352 68.6883 77.6944 68.1363 78.1718 67.6489C78.5 67.3058 78.9974 66.9925 79.5245 66.5996C80.6833 65.7293 81.8569 65.1275 82.9808 64.3268C85.2387 62.7056 87.8595 61.3877 88.889 58.7619C89.1675 58.0557 89.1625 57.429 89.2123 56.6134C89.257 55.8277 89.5454 55.3552 89.7295 54.654C89.8886 54.0523 90.0925 53.0477 89.8886 52.3564C89.6847 51.6651 89.078 51.1429 88.9188 50.382C88.6453 49.094 88.9835 47.5623 90.0826 46.7964C91.2214 46.0056 92.4598 45.9609 93.5439 44.9215C93.9716 44.4988 94.4043 43.9517 94.8668 43.4445C95.3392 42.9322 95.8515 42.4747 96.4333 42.2658C97.8457 41.7635 99.3973 41.5994 100.879 42.0719C101.63 42.3106 102.138 42.3703 102.963 42.241C104.042 42.0768 104.012 42.0371 104.445 42.9621C104.778 43.6633 104.908 44.3247 105.932 43.9567C106.31 43.8175 106.539 43.4494 106.817 43.2107C106.817 43.3549 106.817 43.4942 106.792 43.6334C108.772 43.3649 107.817 45.9808 108.359 46.9555C108.558 47.3086 109.374 47.6866 109.697 47.9949C110.204 48.4922 110.338 49.1935 110.731 49.6261C112.566 51.6353 116.072 51.1081 118.057 52.5553C117.475 53.2068 116.704 53.1969 115.988 53.6096C116.217 54.7833 116.605 55.6138 116.535 56.9765C115.988 57.061 115.605 57.1605 115.098 57.3196C114.948 59.8908 113.486 61.6165 113.914 64.2423C114.953 64.6252 117.072 66.3261 117.564 67.5694C117.883 68.3601 117.157 69.8968 118.072 70.4687C118.773 70.9064 119.459 70.0311 120.409 70.4986C121.966 71.2694 123.209 72.3287 124.711 73.02C126.123 73.6665 126.65 75.4966 128.247 76.158C128.396 76.8443 128.799 77.4759 129.147 78.0677C127.187 79.5647 127.406 82.7823 130.027 83.1255C130.057 83.3542 130.087 83.6278 130.052 83.8516C130.052 83.8516 130.027 84.5975 130.345 85.2789C130.589 85.816 130.868 86.3431 131.335 86.6664C131.783 86.9797 132.479 86.9598 132.638 87.6411C132.718 87.6312 132.787 87.6312 132.847 87.6312Z" fill="white"/>
<path d="M133.071 97.4831C132.932 97.4931 132.792 97.4931 132.648 97.4931C132.404 97.4981 132.171 97.513 131.987 97.5926C131.639 97.7368 131.295 97.9904 130.947 98.1694C130.44 98.4479 129.754 99 129.177 99.0199C128.948 98.4181 129.077 97.6373 128.958 97.0057C128.033 96.404 126.626 95.9613 125.507 95.7226C124.81 95.5784 124.189 95.3646 123.522 95.1806C123.299 95.1209 123.08 94.9965 122.851 94.8921C122.891 94.8623 122.926 94.8324 122.96 94.7976C123.403 94.3749 123.94 93.7234 124.318 93.2161C124.84 92.505 124.721 91.8535 125.014 91.1175C125.502 89.8692 126.884 89.2277 128.003 88.7652C129.157 88.2927 130.694 89.5609 131.773 89.158C131.887 89.5062 132.066 89.8344 132.131 90.1825C132.24 90.7395 132.484 91.575 132.27 92.0922C131.733 92.3309 131.206 92.3906 130.694 92.5995C130.415 92.7139 129.331 92.9227 129.217 93.1266C129.575 93.4698 130.017 93.8776 130.445 94.0765C130.937 94.3152 131.599 94.3401 132.116 94.4843C132.171 95.1109 132.101 95.5287 132.39 96.0906C132.618 96.5382 132.772 97.1102 133.071 97.4831Z" fill="white"/>
<path d="M175.696 143.768C175.512 146.936 175.975 149.885 172.822 151.183C170.723 152.044 165.173 153.874 159.001 155.784C149.393 158.763 138.283 161.911 136.418 161.836C133.424 166.799 129.465 171.917 126.695 175.477C126.68 173.419 126.685 171.474 124.875 170.355C123.552 169.539 121.488 169.007 119.967 168.376C118.499 167.774 116.635 166.789 115.038 166.546C113.924 166.377 113.034 166.71 112 166.212C111.104 165.785 111.547 164.517 109.916 165.004C109.463 166.705 107.345 167.809 109.309 169.718C108.822 170.857 107.822 172.762 106.156 172.26C106.027 172.17 105.912 172.086 105.823 172.011C105.226 171.519 105.221 171.146 104.744 170.315C104.246 169.465 104.589 168.381 102.993 168.704C103.301 167.048 101.481 165.795 100.541 164.81C100.104 164.347 99.3278 163.965 98.8504 163.343C98.2238 162.522 98.3034 162.105 97.816 161.219C96.9556 159.673 96.1748 159.24 95.6427 157.261C95.2051 155.615 94.5088 154.491 93.6336 153.138C93.4993 153.009 93.2655 153.158 93.1014 153.083C92.9423 152.327 92.3157 151.969 91.5249 151.885C91.4652 150.512 90.1722 150.786 89.6799 149.781C84.3138 150.457 82.9114 141.595 82.787 138.074C82.7075 135.826 81.5636 133.936 80.6088 131.758C79.8827 130.112 78.4007 127.929 76.8938 126.382C76.8192 126.303 76.9037 126.139 76.8292 126.049C75.7748 124.756 74.7752 126.934 73.338 126.188C72.6119 125.82 72.3036 124.726 72.1494 124.194C71.8908 123.294 72.3782 122.707 72.3235 122.07C72.1941 120.494 71.1547 119.355 70.3939 118.052C68.9715 115.63 66.3258 113.88 65.5599 111.02C65.4505 110.995 65.3362 110.975 65.2317 110.95C64.9134 108.906 62.5512 106.892 61.5814 104.863C60.9448 103.535 58.3438 99.9895 56.7325 101.278C56.4192 99.7807 56.3098 96.4735 57.4288 95.0114C57.4139 95.1009 57.4039 95.1805 57.399 95.2551C57.4537 95.27 57.5133 95.2899 57.583 95.3048C58.9207 95.7126 63.1977 96.4934 64.3614 96.6028C65.9628 96.742 67.7133 94.5737 68.6781 93.3503C69.3296 92.5397 69.9264 92.9276 70.8912 92.8182C71.7167 92.7237 72.5671 92.3209 73.3927 92.2115C73.4623 90.9582 73.5419 90.252 74.3724 89.332C74.9742 88.6656 76.2871 88.0638 75.6505 87.1637C74.4172 85.4082 70.1999 80.9969 69.9314 80.2908C70.5431 80.2908 75.0339 78.8038 76.0732 78.4805C77.9631 77.8837 79.2362 77.1477 80.5889 75.7303C80.9867 75.974 81.5089 76.0785 82.3046 76.0785C83.6723 76.0735 85.4825 76.3222 86.6562 77.093C87.8547 77.8788 108.941 92.4303 110.01 93.2608C111.01 94.0366 112.268 94.8771 113.447 95.1655C114.949 95.5236 116.823 95.26 118.39 95.26C119.728 95.26 121.891 95.6231 122.856 94.887C123.085 94.9865 123.304 95.1158 123.527 95.1755C124.189 95.3545 124.815 95.5733 125.512 95.7176C126.626 95.9563 128.033 96.4039 128.963 97.0006C129.082 97.6322 128.953 98.413 129.182 99.0148C129.759 98.9949 130.44 98.4429 130.952 98.1644C131.3 97.9804 131.644 97.7317 131.992 97.5875C132.176 97.5079 132.414 97.493 132.653 97.488C133.001 97.7168 133.389 97.8859 133.782 97.9654C134.264 99.159 134.906 101.233 135.761 101.924C135.751 103.839 138.288 103.237 139.337 104.018C139.069 104.092 138.86 104.207 138.601 104.296C138.611 104.898 139.924 106.116 140.386 106.594C141.152 107.395 141.794 108.076 142.47 108.862C143.41 109.961 143.748 110.577 143.893 111.985C144.037 113.268 143.704 113.904 144.251 115.138C144.728 116.217 145.817 116.714 146.429 117.56C147.125 118.515 147.259 120.007 147.911 120.827C148.085 121.046 148.319 121.24 148.582 121.404C149.259 121.842 150.144 122.135 150.83 122.409C151.611 122.722 151.989 122.846 152.208 123.035C152.506 123.294 152.516 123.667 152.839 124.796C153.267 124.801 153.545 125.034 153.923 125.069C153.889 125.089 153.854 125.109 153.819 125.134C152.426 126.134 154.983 129.431 155.376 130.759C156.122 133.325 157.713 133.409 160.125 134.12C162.577 134.852 164.969 135.165 167.639 135.314C168.928 135.384 170.31 135.389 171.598 135.314C172.901 135.234 173.607 134.309 174.622 134.364C174.617 134.424 174.617 134.484 174.617 134.543C174.607 136.15 175.696 137.194 175.746 138.87C175.795 140.491 175.791 142.177 175.696 143.768Z" fill="white"/>
<path d="M152.7 120.976C152.66 121.404 152.725 121.767 152.6 122.17C152.516 122.424 152.367 122.742 152.193 123.045C151.974 122.856 151.596 122.732 150.815 122.419C150.134 122.145 149.243 121.852 148.567 121.414C148.607 121.29 148.637 121.17 148.691 121.081C148.895 120.673 149.079 120.593 149.134 120.091C149.219 119.3 148.696 118.778 148.542 118.007C148.483 117.699 148.388 117.137 148.637 116.874C148.975 116.525 149.174 116.819 149.184 116.133C149.194 115.262 149.01 114.586 149.542 113.86C149.89 113.392 150.258 112.567 150.87 113.119C151.118 113.343 151.203 113.601 151.462 113.815C151.71 114.024 151.8 114.128 152.014 114.447C152.561 114.536 152.128 116.242 151.994 116.57C151.735 117.222 151.004 117.664 151.551 118.321C151.974 118.838 152.849 119.181 152.894 119.828C152.924 120.25 152.735 120.564 152.7 120.976Z" fill="white"/>
<path d="M180.535 118.112C180.525 118.152 180.51 118.186 180.49 118.221C180.361 118.47 180.102 118.535 179.833 118.694C179.202 119.097 175.616 131.216 174.607 134.548C174.607 134.489 174.612 134.429 174.612 134.369C173.597 134.319 172.886 135.239 171.588 135.319C170.3 135.394 168.917 135.389 167.629 135.319C164.959 135.17 162.567 134.862 160.115 134.126C157.708 133.414 156.116 133.33 155.365 130.764C154.973 129.436 152.416 126.139 153.809 125.139C153.928 125.129 154.038 125.124 154.092 125.134C154.455 125.248 154.296 125.194 154.391 125.572C154.505 126.024 154.609 126.522 154.585 126.999C154.873 127.118 155.171 126.785 155.455 126.701C155.883 126.576 156.027 126.755 156.395 126.919C156.653 127.039 157.181 127.248 157.499 127.113C157.743 127.004 158.111 126.546 158.334 126.357C158.673 126.069 158.871 125.761 159.359 125.671C159.777 125.596 160.244 125.621 160.657 125.587C161.448 125.512 162.238 125.562 163.034 125.527C164.024 125.477 164.382 126.253 165.357 126.263C166.207 126.273 167.241 126.074 167.962 125.711C167.982 125.005 168.156 124.065 169.111 124.284C169.519 124.378 169.619 124.632 170.006 124.378C170.25 124.224 170.554 123.886 170.693 123.642C170.882 123.324 170.941 122.911 170.792 122.603C170.733 122.473 170.529 122.473 170.494 122.309C170.454 122.085 170.628 121.956 170.733 121.802C171.14 121.21 171.946 120.907 172.513 120.414C173.378 119.659 174.219 119.062 174.159 117.754C174.139 117.455 174.03 117.251 174.254 117.003C174.368 116.874 174.796 116.739 174.95 116.665C175.397 116.466 175.969 116.192 176.387 115.929C176.959 115.571 177.183 115.526 177.322 115.287C177.506 114.974 177.765 114.725 177.909 114.387C177.929 114.337 177.939 114.278 177.949 114.213C177.949 114.213 177.949 114.213 177.949 114.208C177.983 113.885 177.909 113.437 178.371 113.556C178.859 113.676 178.889 115.118 179.018 115.531C179.102 115.809 179.257 115.973 179.436 116.093C179.814 116.341 180.306 116.396 180.535 116.879C180.614 117.082 180.599 117.893 180.535 118.112Z" fill="white"/>
<path d="M201.089 137.383C200.925 137.686 200.691 137.875 200.607 138.228C200.522 138.596 200.582 139.014 200.457 139.367C200.194 140.153 199.721 140.799 199.373 141.545C199.05 142.227 198.583 142.734 198.583 142.734C198.329 143.351 197.712 143.57 197.294 144.017C196.872 144.46 196.917 145.032 196.583 145.574C195.897 146.693 195.047 147.086 195.101 148.553C194.534 148.607 194.221 148.244 193.848 147.951C193.818 147.538 193.838 147.105 193.813 146.703C192.993 146.837 192.187 147.643 192.267 148.543C192.321 148.558 192.381 148.568 192.431 148.577C192.421 148.732 192.371 148.876 192.331 149.035C191.277 149.338 190.73 150.945 190.77 151.919C190.799 152.795 191.098 153.212 191.267 153.998C191.342 154.351 191.148 154.764 191.282 155.162C191.376 155.44 191.645 155.739 191.749 155.978C192.152 156.853 192.117 157.35 190.964 157.36C190.581 157.365 190.148 157.097 189.775 157.156C189.467 157.206 189.283 157.599 188.984 157.663C188.218 157.823 187.393 157.305 186.632 157.589C186.075 157.793 185.478 158.479 185.105 158.947C184.2 160.085 184.643 162.085 183.544 162.905C182.266 163.86 180.863 163.636 179.292 163.795C178.73 163.845 177.805 163.969 177.432 164.512C176.974 165.193 177.551 165.884 177.616 166.556C177.695 167.411 176.517 169.664 175.606 169.649C174.91 169.644 174.413 169.132 173.562 169.231C172.861 169.311 172.17 169.53 171.499 169.743C171.484 169.798 171.474 169.853 171.464 169.912C170.713 170.022 170.28 170.474 169.42 170.435C169.151 170.867 168.743 171.146 168.594 171.688C167.47 171.683 166.744 171.509 166.088 171.101C165.62 170.803 165.193 170.375 164.68 169.798C164.223 169.276 163.387 168.798 163.173 168.147C162.945 167.466 163.343 166.506 163.472 165.874C163.661 164.904 163.721 164.755 162.999 163.974C162.482 163.412 161.91 163.015 161.413 162.487C160.503 161.523 159.946 160.419 159.2 159.27C158.732 158.549 158.588 158.335 158.628 157.365C158.653 156.848 158.892 156.311 158.996 155.789C165.168 153.879 170.718 152.049 172.816 151.188C175.974 149.885 175.507 146.941 175.691 143.773C175.785 142.177 175.79 140.496 175.736 138.875C175.681 137.199 174.597 136.154 174.607 134.548C175.616 131.216 179.197 119.096 179.834 118.694C180.102 118.53 180.361 118.465 180.49 118.221C180.719 118.689 180.694 119.653 180.724 119.952C180.803 120.842 180.634 121.538 181.181 122.264C181.549 122.762 182.002 123.269 182.45 123.811C182.892 124.338 183.021 124.935 183.454 125.487C183.927 126.089 184.543 126.357 185.18 126.775C185.697 127.113 186.274 127.755 186.866 127.944C187.681 128.217 188.228 127.432 189.039 127.501C189.705 127.556 190.486 127.814 191.133 128.028C191.68 128.212 192.102 128.202 192.654 128.008C193.167 127.819 193.699 127.819 194.276 127.849C194.574 128.247 194.848 128.685 195.176 129.028C195.499 129.371 196.026 129.883 196.121 130.366C196.265 131.107 196.136 131.46 196.648 132.067C196.991 132.469 197.473 132.927 197.707 133.379C197.961 133.454 198.16 133.837 198.354 134.026C198.588 134.26 198.896 134.459 199.174 134.682C199.468 134.921 199.692 135.1 200.074 135.16C200.462 135.224 200.811 135.125 201.144 135.369C201.74 135.831 201.392 136.826 201.089 137.383Z" fill="white"/>
<path d="M166.098 171.096C165.247 171.429 164.352 171.897 163.586 172.22C162.348 172.752 161.318 173.627 160.916 174.965C160.712 175.627 160.97 176.587 160.737 177.218C160.498 177.855 159.777 177.8 159.006 178.108C157.623 178.655 156.499 179.556 155.097 180.028C153.744 180.481 152.287 180.769 150.924 181.276C149.512 181.798 148.09 182.46 146.648 182.957C145.096 183.489 143.833 183.36 142.589 184.539C142.127 184.981 141.654 185.349 141.207 185.822C140.764 186.279 140.361 187.14 139.824 187.403C139.451 187.587 139.277 187.358 138.86 187.428C138.546 187.483 138.193 187.766 137.895 187.741C137.179 187.687 136.925 186.936 135.985 187.324C134.682 187.856 134.165 189.263 132.927 189.8C131.564 190.382 130.082 190.526 128.674 190.984C127.814 191.262 127.61 191.128 126.824 190.959C126.491 190.884 126.054 190.969 125.705 190.884C125.298 190.785 125.124 190.422 124.726 190.313C122.1 189.601 120.792 195.062 118.077 194.579C117.097 194.4 117.117 194.072 116.142 194.575C115.51 194.898 114.909 195.39 114.138 195.34C113.889 195.32 113.561 195.072 113.253 195.037C112.86 195.002 112.462 195.276 112.168 195.251C111.174 195.141 111.238 194.584 110.98 193.759C110.657 192.72 109.204 191.367 109.214 190.322C109.229 189.721 109.99 188.895 109.523 188.194C109.369 187.955 108.807 187.925 108.608 187.731C108.329 187.463 108.25 187.12 108.11 186.737C107.578 185.25 107.509 183.609 107.121 182.092C106.937 181.361 106.653 180.968 106.23 180.311C106.081 180.083 105.266 178.974 105.266 178.8C105.256 178.203 106.275 177.72 106.429 177.243C106.608 176.671 106.3 175.895 106.235 175.269C106.121 174.17 106.002 173.09 105.833 172.016C105.922 172.091 106.037 172.175 106.166 172.265C107.832 172.767 108.831 170.862 109.319 169.724C107.354 167.814 109.473 166.71 109.926 165.009C111.552 164.522 111.114 165.785 112.009 166.217C113.039 166.715 113.929 166.382 115.048 166.551C116.644 166.799 118.509 167.779 119.976 168.381C121.493 169.012 123.557 169.545 124.885 170.36C126.7 171.479 126.695 173.424 126.705 175.482C129.475 171.922 133.429 166.809 136.428 161.841C138.293 161.911 149.403 158.763 159.011 155.789C158.906 156.306 158.668 156.848 158.643 157.365C158.603 158.33 158.747 158.549 159.215 159.27C159.966 160.424 160.523 161.523 161.428 162.488C161.925 163.01 162.497 163.408 163.014 163.975C163.735 164.755 163.676 164.905 163.487 165.874C163.357 166.506 162.96 167.466 163.188 168.147C163.407 168.804 164.238 169.281 164.695 169.798C165.198 170.375 165.625 170.798 166.098 171.096Z" fill="white"/>
<path d="M76.0682 78.4855C75.0239 78.8088 70.5331 80.2958 69.9263 80.2958C70.1949 81.002 74.4072 85.4082 75.6455 87.1687C76.2821 88.0689 74.9692 88.6706 74.3674 89.337C73.5369 90.2571 73.4573 90.9633 73.3877 92.2165C72.5572 92.3259 71.7117 92.7288 70.8862 92.8232C69.9264 92.9327 69.3296 92.5447 68.6731 93.3554C67.7083 94.5738 65.9578 96.7421 64.3564 96.6078C63.1976 96.4984 58.9157 95.7176 57.578 95.3098C57.5431 95.1855 57.5083 95.0661 57.4735 94.9518C57.4636 94.9219 57.4536 94.902 57.4437 94.8722C57.4437 94.8622 57.4437 94.8622 57.4437 94.8622C57.757 92.7536 59.234 86.184 59.4578 84.1401C59.4727 83.9511 59.4976 83.7621 59.5125 83.5831C59.6816 81.917 59.7512 80.4251 59.7065 78.5303V78.5253C59.7015 78.0479 59.6866 77.5456 59.6617 77.0135C59.6368 76.4068 59.6915 75.7652 59.7363 75.1734C59.8009 74.4324 59.8954 74.4175 60.3629 73.9351C60.8503 73.4378 60.91 73.0449 61.6261 73.0797C61.6858 73.0847 61.7554 73.0946 61.825 73.0996C62.2577 73.1792 62.7501 73.4179 63.1131 73.5969C63.9685 74.0345 64.6747 74.9297 65.5997 75.1237C66.4103 75.2828 67.6287 74.2235 68.3449 73.7561C71.5874 71.6126 74.7155 69.4791 78.1818 67.649C77.7044 68.1364 77.5453 68.6934 78.0326 69.688C78.6394 70.9313 78.888 72.3387 79.3655 73.6914C79.7285 74.7308 80.007 75.3873 80.5938 75.7404C79.2312 77.1577 77.958 77.8888 76.0682 78.4855Z" fill="white"/>
<path d="M94.8718 43.4445C94.4093 43.9517 93.9766 44.4988 93.5489 44.9215C92.4647 45.9609 91.2264 46.0056 90.0876 46.7964C88.9835 47.5622 88.6503 49.094 88.9238 50.382C89.083 51.1429 89.6897 51.6651 89.8936 52.3564C90.0975 53.0477 89.8986 54.0523 89.7345 54.654C89.5505 55.3552 89.262 55.8277 89.2173 56.6134C89.1675 57.429 89.1775 58.0557 88.894 58.7619C87.8646 61.3877 85.2437 62.7056 82.9859 64.3268C81.8619 65.1325 80.6883 65.7293 79.5295 66.5996C78.9974 66.9925 78.505 67.3058 78.1768 67.6489C74.7105 69.4741 71.5824 71.6126 68.3399 73.756C67.6237 74.2235 66.4053 75.2828 65.5947 75.1236C64.6697 74.9297 63.9684 74.0345 63.1081 73.5969C62.75 73.4228 62.2527 73.1841 61.82 73.0995C61.8747 71.7816 61.8648 70.3543 61.4023 69.6879C61.1636 69.3348 60.8751 69.2006 60.5618 69.1956C60.8105 68.748 61.1984 68.3203 61.3525 67.7981C61.4023 67.7832 61.4619 67.7782 61.5117 67.7683C61.8996 66.1868 62.4417 65.6597 63.9883 65.1972C63.9088 64.5606 64.2817 63.6057 64.1027 63.0288C63.9784 62.5862 63.7944 62.6956 63.5407 62.4171C63.3965 62.263 63.1578 62.447 63.0335 62.3127C62.8942 62.1735 63.0036 61.9397 62.9141 61.8452C62.571 61.4772 62.75 61.323 62.2179 61.0794C61.9592 60.955 61.4072 60.9998 61.1337 60.955C60.6861 60.8804 60.2982 60.7859 59.8755 60.7213C59.9501 59.851 60.1391 59.0404 60.0943 58.0905C60.0695 57.5484 60.1043 56.9019 59.9949 56.3548C59.9103 55.8973 59.602 55.4895 59.4926 55.032C58.9405 54.6739 58.7217 53.724 58.7615 53.0924C58.7814 52.7194 58.851 52.3862 59.0201 52.068C59.0848 51.9536 59.1494 51.869 59.2141 51.7795C59.229 51.8143 59.2439 51.8491 59.2638 51.8839C59.8855 51.5955 60.7558 51.869 61.4371 51.8541C62.6356 51.8243 62.6058 51.7895 62.7201 50.7749C62.7898 50.1483 62.7997 50.2925 63.0235 49.8052C63.1578 49.4968 63.3219 49.2283 63.4065 48.8851C63.5855 48.2187 63.4363 47.3335 63.8292 46.7268C66.9225 48.3231 70.2247 45.1403 73.5965 45.3243C75.0686 45.3989 76.0682 46.5278 77.6496 46.6074C79.3206 46.6969 80.5241 46.0902 82.0012 45.3939C83.4285 44.7226 84.3684 44.1158 86.0494 44.0313C87.6557 43.9567 89.4212 43.9269 90.9827 44.0213C91.9575 43.2605 93.4644 43.4793 94.8718 43.4445Z" fill="white"/>
<path d="M105.326 39.4608C104.958 39.1027 103.968 38.8242 103.799 38.322C103.635 37.8197 104.192 36.6709 104.251 36.089C104.46 33.9704 103.217 33.6322 102.924 31.7922C102.809 31.086 102.829 30.1212 102.625 29.41C102.416 28.6591 101.755 28.2712 101.904 27.366C102.431 27.2417 102.953 27.1472 103.486 27.0229C103.53 26.2819 103.217 25.0933 103.953 24.8148C104.067 24.775 104.177 24.7601 104.276 24.77C104.052 23.9296 103.699 23.2383 102.625 23.0394C101.556 22.8404 100.263 22.92 99.3031 22.4227C98.209 21.8557 98.1791 20.6373 98.1791 19.4786C98.1791 18.8917 98.2886 18.1905 98.1791 17.6236C98.0648 16.9969 97.6719 16.8129 97.284 16.3654C96.9358 15.9625 96.8065 15.5299 96.4883 15.1022C96.3341 14.8983 96.1053 14.7292 95.9263 14.5352C95.8069 14.5551 95.6876 14.5601 95.5781 14.5551C95.056 14.5153 94.2851 13.7694 93.947 13.4759C93.6088 13.1775 92.7982 12.7349 92.6142 12.4415C92.4252 12.1481 91.5001 12.2525 91.1321 12.1779C90.7591 12.1033 90.1673 12.8841 89.6899 12.8443C89.2075 12.8046 89.1329 12.5857 88.8693 12.2873C88.6157 11.989 87.9443 12.9538 87.7205 12.9886C87.4967 13.0284 87.273 12.2128 87.2381 11.8795C87.2083 11.5961 86.6961 11.6657 86.4275 11.6806H86.4225C85.6169 13.0383 84.8759 13.9832 83.3441 14.8784C81.7229 15.8233 80.2458 17.2506 78.4455 17.1064C77.4211 17.0218 76.3071 16.2311 75.1831 16.067C74.1238 15.9128 72.612 15.9576 71.6323 16.2112C70.6128 16.4847 69.7972 17.1213 68.7727 17.2207C67.3703 17.3451 67.1415 16.5195 66.1369 16.2112C65.5401 16.0322 64.8091 16.2659 64.0929 16.0322C63.5359 15.8382 62.7949 15.4155 62.1633 15.142C61.6362 14.9132 61.0444 14.2368 60.5023 14.1274C59.5922 13.9484 58.896 14.58 58.0008 14.4059C57.5134 13.5655 56.847 12.4614 56.7625 11.4916C55.4645 10.6164 54.7782 11.6508 53.5299 11.9094C51.9186 12.2625 52.1026 11.4668 50.74 10.8501C51.1826 8.47789 48.3628 10.0096 47.2985 9.98476C46.5575 9.96984 45.9806 9.53718 45.2545 9.57199C45.0606 9.57697 44.792 10.0892 44.4837 10.134C44.0809 10.1936 43.5786 10.0047 43.1509 9.98476C41.4699 9.90022 40.2416 10.4224 38.7347 10.9098C37.3273 11.3723 35.895 11.432 34.423 11.795C34.7164 13.3317 33.1249 12.715 32.3491 13.282C31.9811 13.5456 31.3246 14.9928 30.9815 15.4752C29.4348 17.6285 27.739 16.1813 25.7994 15.8283C24.77 16.0968 23.4173 16.0769 22.3779 16.2162C21.2937 16.3703 20.0853 15.7139 19.1403 16.0968C17.6782 18.8967 20.9307 18.4143 22.2436 19.6327C21.4131 20.4483 19.1205 20.2494 17.9567 20.697C17.7976 20.8263 17.6981 20.9954 17.5092 21.1396C17.5191 21.7563 18.0512 21.8707 18.653 21.7314C18.2949 22.8653 16.8278 22.6713 15.7039 22.5968C14.3711 22.5172 13.4312 22.6365 12.3221 22.5719C12.2674 22.368 12.1779 22.2287 12.1182 22.0348C10.8501 22.0646 10.4323 23.1736 9.1741 22.7459C8.59224 22.552 8.453 21.9502 7.84129 21.8508C6.69746 21.6767 7.00081 22.2387 6.39906 22.6415C4.20091 24.0788 3.28089 25.6801 3.70858 28.6541C5.02647 28.674 6.37421 27.8236 7.81643 28.107C8.11482 28.7088 6.64772 29.4846 7.54786 31.6529C7.87609 32.2447 7.86615 32.6575 8.85581 32.5531C8.52758 33.2145 7.74182 34.055 7.12018 34.5771C7.32408 34.6319 7.46334 34.7263 7.66724 34.786C7.83136 35.4972 7.29424 35.8354 6.65767 35.9597C6.23495 35.5071 6.06588 34.8855 5.48899 34.7811C5.4691 35.2983 5.03145 36.9494 5.1707 37.2826C5.54866 38.2175 6.75713 37.7301 6.8367 38.8839C8.38833 38.7397 10.2384 39.6398 10.1936 41.2611C9.0249 41.5197 9.751 42.5541 9.80073 43.3449C10.8799 43.2802 11.3623 44.2599 12.0188 44.8468C11.5762 45.3043 10.8849 45.3689 10.2334 45.3142C10.7058 46.6272 13.8787 45.8414 15.0971 45.911C15.0524 46.1448 14.8187 46.6719 14.6446 46.9007C13.7146 46.9305 12.0237 47.0847 11.2827 47.6914C11.2628 47.8804 11.2678 48.0395 11.2777 48.2335C12.2973 48.3529 13.1974 47.9998 14.1821 48.139C14.8087 48.2236 14.4308 48.6413 15.2961 48.4424C15.8232 48.3131 15.9426 47.8108 16.2957 47.6566C17.5042 47.1295 17.5042 47.9401 18.5187 48.1092C19.6377 48.3081 20.1797 47.4378 21.3186 47.6865C21.1296 49.1336 20.5527 49.82 22.2337 50.6405C23.4372 51.2174 24.3025 51.2373 25.5309 50.9588C26.0829 50.8345 26.6946 50.6107 27.1621 50.5112C27.5699 50.4316 28.8579 50.551 29.0917 50.4466C29.8029 50.1183 29.8377 47.9848 29.5194 47.0946C30.6234 47.0847 31.7275 46.4531 32.9161 46.7664C33.9853 47.0598 34.4379 47.6516 35.5867 47.96C36.9344 48.3131 37.2229 48.333 38.113 49.2928C38.7446 49.9691 39.2469 50.8395 40.2167 51.1925C42.1363 51.8639 45.1153 50.9538 47.0449 50.6654C48.3031 50.4814 49.1535 50.6654 49.9393 49.7155C50.6306 48.8651 50.7648 47.9848 51.6351 47.2588C53.4503 45.7519 54.261 47.4477 56.3497 47.3682C57.966 47.3035 59.2839 45.7569 60.7808 45.9061C61.1488 47.1941 59.5027 48.2335 59.0153 49.1386C58.5528 50.004 58.8164 50.919 59.2292 51.7893C59.2441 51.8241 59.259 51.8589 59.2789 51.8938C59.9006 51.6053 60.7709 51.8788 61.4522 51.8639C62.6507 51.8341 62.6209 51.7993 62.7353 50.7847C62.8049 50.1581 62.8148 50.3023 63.0386 49.815C63.1729 49.5066 63.337 49.2381 63.4216 48.8949C63.6006 48.2285 63.4514 47.3433 63.8443 46.7366C66.9376 48.333 70.2398 45.1501 73.6116 45.3341C75.0837 45.4087 76.0833 46.5376 77.6648 46.6172C79.3358 46.7067 80.5393 46.1 82.0163 45.4038C83.4436 44.7324 84.3835 44.1257 86.0645 44.0411C87.6708 43.9665 89.4363 43.9367 90.9979 44.0312C91.9726 43.2603 93.4795 43.4791 94.8869 43.4443C95.3593 42.9321 95.8716 42.4746 96.4534 42.2657C97.8658 41.7634 99.4174 41.5993 100.899 42.0717C101.65 42.3104 102.158 42.3701 102.983 42.2408C104.062 42.0767 104.033 42.0369 104.465 42.9619C104.798 43.6632 104.928 44.3246 105.952 43.9566C106.33 43.8173 106.559 43.4493 106.837 43.2106C106.818 41.9076 106.191 40.3013 105.326 39.4608Z" fill="white"/>
<path d="M4.13133 21.5027C3.8578 21.8608 3.68373 22.93 4.03186 23.2931C4.30538 23.0892 4.41978 22.7261 4.67342 22.5023C4.91213 22.2984 5.18069 22.1542 5.42935 21.9602C6.01619 21.5077 6.68258 21.2789 7.34401 20.9557C8.06015 20.6125 8.35855 20.2346 8.84592 19.6378C9.07966 19.3543 9.32333 19.1703 9.56701 18.9167C9.79578 18.668 9.8704 18.2851 10.0594 18.0762C10.4473 17.6386 11.7204 17.8972 12.347 17.8922C13.1378 17.8822 13.5655 17.2307 14.3711 17.3451C15.0773 17.4446 15.7338 17.9121 16.4499 17.9419C17.1362 17.9718 17.8921 17.1114 18.1259 16.5196C17.7927 16.3903 17.5888 16.2411 17.5788 15.878C17.4993 15.8233 17.4097 15.8034 17.3302 15.7338C16.8428 15.326 16.3753 14.9282 15.9178 14.4756C15.6194 14.1772 15.4603 13.9982 14.9629 13.9882C14.5054 13.9882 14.4109 14.0628 13.9633 13.7595C13.5406 13.471 12.7449 12.8991 12.6056 12.4068C12.5012 12.0785 12.531 11.5613 12.4962 11.2231C12.4714 11.0491 12.4266 10.8899 12.3669 10.7308C11.5712 10.1589 11.8099 10.144 10.8352 10.4573C9.9251 10.7557 9.85049 10.5717 9.01002 10.139C7.4733 9.35323 6.56321 10.1042 5.25029 10.8004C4.88228 10.9993 4.53418 11.1684 4.21589 11.3574C4.29546 11.6508 4.31036 11.994 4.28549 12.2078C4.26063 12.4515 4.13134 12.6256 4.23577 12.8543C4.3054 13.0135 4.58388 13.1428 4.68832 13.287C5.52381 13.3815 5.44424 14.6596 5.02649 15.1171C4.64356 15.5399 3.73349 15.8084 3.68874 16.5096C3.6589 16.9572 4.02194 17.2258 3.77825 17.6883C3.64895 17.9369 3.33561 18.3398 3.16155 18.5039C2.92284 18.7376 2.71398 18.7078 2.68414 18.8918C2.66922 18.9564 2.67917 19.036 2.71398 19.1703C2.79355 19.4538 3.01237 19.8118 3.24114 19.9859C3.79813 20.4136 4.88726 20.3837 5.6034 20.4235C5.50891 21.0402 4.48442 21.0402 4.13133 21.5027Z" fill="white"/>
<path d="M2.54988 22.3232C2.10726 22.1939 1.93319 22.6663 1.51544 22.7409C1.09272 22.8155 0.456183 22.5768 0.580513 22.8951C0.704842 23.2134 0.709803 23.651 1.37621 23.6311C2.03764 23.6062 2.2664 23.7057 2.38575 23.4869C2.37581 23.4869 2.99746 22.4425 2.54988 22.3232Z" fill="white"/>
</svg>
