<svg width="194" height="194" viewBox="0 0 194 194" fill="none" xmlns="http://www.w3.org/2000/svg">
<path fill-rule="evenodd" clip-rule="evenodd" d="M0 97C0 43.4464 43.4464 0 97 0C150.554 0 194 43.4464 194 97C194 150.554 150.554 194 97 194C43.4464 194 0 150.554 0 97ZM97 14.9231C51.6882 14.9231 14.9231 51.6882 14.9231 97C14.9231 142.312 51.6882 179.077 97 179.077C142.312 179.077 179.077 142.312 179.077 97C179.077 51.6882 142.312 14.9231 97 14.9231Z" fill="white"/>
<path fill-rule="evenodd" clip-rule="evenodd" d="M125.236 61.8275C128.355 64.5166 128.675 69.1914 125.949 72.269L101.785 99.5565C99.06 102.634 94.322 102.949 91.2027 100.26C88.0835 97.5711 87.7642 92.8963 90.4896 89.8186L114.654 62.5312C117.379 59.4535 122.117 59.1385 125.236 61.8275ZM154.435 61.8282C157.554 64.5177 157.873 69.1926 155.147 72.2698L102.708 131.47C101.341 133.013 99.3867 133.928 97.3107 133.996C95.2346 134.064 93.2229 133.28 91.7548 131.83L69.2783 109.63C66.3509 106.739 66.3534 102.053 69.2838 99.1647C72.2143 96.2764 76.963 96.2788 79.8904 99.1702L96.6951 115.768L143.853 62.5304C146.579 59.4531 151.317 59.1388 154.435 61.8282ZM39.1995 99.1647C42.1299 96.2764 46.8787 96.2788 49.8061 99.1702L72.2826 121.37C75.21 124.262 75.2075 128.947 72.2771 131.835C69.3466 134.724 64.5979 134.721 61.6705 131.83L39.1939 109.63C36.2665 106.739 36.269 102.053 39.1995 99.1647Z" fill="white"/>
</svg>
