<svg width="12" height="12" viewBox="0 0 12 12" fill="none" xmlns="http://www.w3.org/2000/svg">
<mask id="mask0" mask-type="alpha" maskUnits="userSpaceOnUse" x="0" y="0" width="12" height="12">
<circle cx="6" cy="6" r="6" fill="#C4C4C4"/>
</mask>
<g mask="url(#mask0)">
<path d="M15.5208 0H-3V12.4354H15.5208V0Z" fill="#ED5565"/>
<path d="M-3 1.43486H15.5208H-3ZM15.5208 3.348H-3H15.5208ZM-3 5.26114H15.5208H-3ZM15.5208 7.17429H-3H15.5208ZM-3 9.08743H15.5208H-3ZM15.5208 11.0006H-3H15.5208Z" fill="black"/>
<path d="M15.5208 11.0006H-3M-3 1.43486H15.5208H-3ZM15.5208 3.348H-3H15.5208ZM-3 5.26114H15.5208H-3ZM15.5208 7.17429H-3H15.5208ZM-3 9.08743H15.5208H-3Z" stroke="#F5F7FA" stroke-width="0.846916"/>
<path d="M6.45092 0H-3V6.75077H6.45092V0Z" fill="#4758A9"/>
<path d="M1.36387 2L1.58877 2.69218L0.999969 2.26439H1.72777L1.13897 2.69218L1.36387 2Z" fill="white"/>
<path d="M1.36387 3L1.58877 3.69218L0.999969 3.26439H1.72777L1.13897 3.69218L1.36387 3Z" fill="white"/>
<path d="M1.36387 4L1.58877 4.69218L0.999969 4.26439H1.72777L1.13897 4.69218L1.36387 4Z" fill="white"/>
<path d="M1.36387 5L1.58877 5.69218L0.999969 5.26439H1.72777L1.13897 5.69218L1.36387 5Z" fill="white"/>
</g>
</svg>
