<svg width="284" height="284" viewBox="0 0 284 284" fill="none" xmlns="http://www.w3.org/2000/svg">
<rect x="3" y="3" width="278" height="278" rx="32" stroke="#C4C4C4" stroke-width="6"/>
<path d="M111.103 198.817C102.623 198.817 95.0802 192.505 92.3411 183.11L92.1559 182.402C91.5099 179.914 91.2393 177.821 91.2393 175.728V133.749L78.3889 183.608C76.7362 190.942 80.5023 198.545 86.8213 200.571L168.73 226.068C169.752 226.375 170.774 226.523 171.781 226.523C177.056 226.523 181.877 222.453 183.228 216.456L188 198.817H111.103Z" fill="#C4C4C4"/>
<path d="M125.5 134.908C131.291 134.908 136 129.187 136 122.152C136 115.117 131.291 109.395 125.5 109.395C119.709 109.395 115 115.117 115 122.152C115 129.187 119.709 134.908 125.5 134.908Z" fill="#C4C4C4"/>
<path d="M192.624 92H112.375C105.003 92 99 98.9128 99 107.403V175.17C99 183.66 105.003 190.573 112.375 190.573H192.624C199.997 190.573 206 183.66 206 175.17V107.403C206 98.9128 199.997 92 192.624 92ZM112.375 104.322H192.624C194.102 104.322 195.3 105.702 195.3 107.403V151.138L178.399 128.429C176.607 126.008 174.012 124.714 171.225 124.641C168.453 124.659 165.854 126.076 164.078 128.528L144.207 155.992L137.734 148.556C134.075 144.342 128.12 144.342 124.466 148.556L109.7 165.554V107.403C109.7 105.702 110.898 104.322 112.375 104.322Z" fill="#C4C4C4"/>
</svg>
