<svg width="332" height="67" viewBox="0 0 332 67" fill="none" xmlns="http://www.w3.org/2000/svg">
<g clip-path="url(#clip0)">
<path d="M330.488 46.9109C330.134 47.27 329.784 47.3973 329.421 47.4928C328.148 47.8246 326.854 47.9792 325.541 47.9337C324.741 47.9065 323.942 47.9474 323.147 47.9474C320.294 47.9565 317.427 48.3838 314.597 47.761C313.656 47.5519 312.73 47.8383 311.821 47.661C310.776 47.4564 309.786 47.9565 308.727 47.7428C307.682 47.5291 306.601 47.7883 305.538 47.7883C304.466 47.7883 303.389 47.8928 302.326 47.8064C300.822 47.6882 299.332 48.011 297.833 47.8837C297.088 47.8201 296.329 47.861 295.584 47.7701C293.031 47.4609 290.469 47.8655 287.916 47.6473C287.116 47.5791 286.317 47.511 285.517 47.4791C284.727 47.4473 283.927 47.5155 283.132 47.5337C282.719 47.5428 282.31 47.4882 281.901 47.3928C281.592 47.32 281.279 47.4973 280.956 47.5246C279.648 47.6473 278.307 47.711 277.049 47.5155C275.904 47.3382 274.855 48.0019 273.755 47.6155C273.651 47.5791 273.501 47.711 273.419 47.5428C273.342 47.3791 273.378 47.1154 273.11 47.12C272.751 47.1245 272.383 47.0654 272.034 47.1927C271.725 47.3018 271.425 47.4291 271.111 47.511C270.939 47.5564 270.73 47.6655 270.575 47.4291C270.462 47.2564 270.307 47.3609 270.194 47.4337C269.662 47.7837 269.049 47.6746 268.472 47.7473C268.158 47.7883 267.859 47.6382 267.554 47.5428C267.104 47.4018 266.55 47.2609 266.105 47.6655C265.905 47.8474 265.651 47.8201 265.451 47.7701C265.174 47.6973 264.919 47.7246 264.66 47.7837C263.638 48.011 262.616 47.7701 261.598 47.7564C260.072 47.7337 258.536 47.7655 257.015 47.7974C256.301 47.811 255.529 47.8155 254.925 47.6382C254.198 47.4291 253.607 47.7246 252.962 47.6746C252.717 47.6564 252.353 47.8655 252.254 47.4109C252.254 47.4064 252.154 47.4064 252.113 47.4291C251.09 47.8701 250.055 47.6155 249.014 47.5246C248.469 47.4791 247.901 47.6473 247.365 47.4428C246.457 47.0927 245.566 47.4746 244.671 47.4564C244.576 47.4564 244.203 47.6564 244.394 47.2155C244.449 47.0927 244.217 47.0609 244.108 47.0745C243.785 47.12 243.422 47.1154 243.168 47.2791C242.986 47.3973 242.827 47.4382 242.663 47.42C241.287 47.2836 239.906 47.4155 238.52 47.2109C238.034 47.1382 237.434 46.829 236.835 47.27C236.439 47.561 235.799 47.1609 235.281 47.3882C235.208 47.42 235.067 47.3473 235.045 47.2155C235.031 47.1291 235.036 47.02 234.908 47.0245C234.468 47.0427 233.963 46.9427 233.6 47.1245C233.237 47.3018 232.95 47.3155 232.591 47.2564C232.383 47.22 232.16 47.2836 231.946 47.2927C231.642 47.3109 231.292 47.0245 231.042 47.42C230.42 46.9245 229.798 47.6246 229.189 47.4291C228.516 47.2155 227.862 47.3928 227.204 47.4473C227.035 47.4609 226.867 47.5019 226.776 47.3155C226.617 46.9882 226.299 47.0427 226.127 47.1745C225.504 47.6519 224.787 47.5291 224.105 47.5246C223.237 47.5155 222.379 47.6246 221.516 47.5837C220.916 47.5564 220.248 47.8201 219.739 47.2518C219.653 47.1564 219.499 47.2564 219.476 47.4564C219.453 47.6473 219.321 47.5791 219.249 47.5837C218.558 47.6019 217.868 47.6428 217.186 47.4655C216.955 47.4018 216.727 47.5019 216.5 47.5473C215.887 47.6701 215.237 47.6928 214.638 47.6473C213.888 47.5928 213.116 47.7701 212.384 47.4746C212.216 47.4064 212.066 47.4928 211.912 47.5291C210.508 47.8701 209.091 47.9837 207.651 47.8792C207.423 47.861 207.223 47.9656 207.028 47.6883C206.887 47.4837 206.601 47.6882 206.406 47.811C206.056 48.0292 205.756 48.0474 205.343 47.8565C204.988 47.6928 205.106 47.6792 205.306 47.5519C205.443 47.4655 205.579 47.3837 205.788 47.2564C205.42 47.12 205.138 46.6517 204.879 47.3427C204.834 47.4609 204.543 47.8655 204.143 47.6201C204.03 47.5519 203.739 47.6201 203.635 47.7292C203.412 47.9656 203.226 48.1292 202.912 47.8928C202.88 47.8701 202.74 47.9201 202.726 47.961C202.553 48.4565 202.14 48.1247 201.876 48.2565C201.763 48.0838 202.049 47.9883 201.854 47.7883C201.463 48.2656 200.904 48.0338 200.4 48.1201C199.909 48.202 199.378 47.8474 198.914 48.252C198.742 47.9656 198.515 48.0247 198.269 48.1383C198.287 48.2338 198.401 48.1974 198.419 48.2383C198.501 48.3974 198.287 48.4156 198.274 48.4065C197.765 48.1701 197.088 48.9884 196.657 48.1338C196.579 47.9792 196.352 48.211 196.22 48.3338C196.08 48.4611 195.98 48.7839 195.775 48.3202C195.675 48.0883 195.207 48.1065 194.98 48.2747C194.462 48.6611 193.953 48.5702 193.417 48.3747C193.263 48.3202 193.099 48.3202 193.299 48.0792C193.422 47.9292 193.286 47.7201 193.095 47.6746C192.945 47.6382 192.836 47.6792 192.754 47.9019C192.568 48.4156 191.891 48.5838 191.437 48.2883C191.15 48.1019 190.919 48.1383 190.782 48.4611C190.701 48.6566 190.56 48.7293 190.374 48.7657C190.115 48.8111 190.015 48.5611 190.024 48.4474C190.046 48.0838 190.378 48.4111 190.524 48.2656C190.369 47.9883 190.11 47.8746 189.76 48.0701C189.506 48.211 189.32 48.4611 188.947 48.3247C188.956 48.5793 189.342 48.5293 189.229 48.7248C189.133 48.8839 188.929 48.8884 188.743 48.7748C188.684 48.7384 188.552 48.7566 188.484 48.802C188.075 49.0521 187.775 49.0884 187.616 48.5111C187.543 48.252 187.207 48.2429 186.985 48.1292C186.857 48.0656 186.726 48.0338 186.617 47.9201C186.358 47.6428 186.353 47.6473 186.185 48.011C186.171 48.0428 186.153 48.0974 186.149 48.0974C185.54 48.0065 184.999 48.3974 184.34 48.2565C183.682 48.1156 182.95 48.1019 182.264 48.3202C181.974 48.4111 181.715 48.5384 181.438 48.2338C181.269 48.0428 180.988 48.0474 180.729 48.1292C179.457 48.5247 178.126 48.2156 176.84 48.4429C176.79 48.452 176.713 48.4565 176.681 48.4293C176.122 47.961 175.464 48.1792 174.846 48.1701C174.691 48.1656 174.496 48.1429 174.446 48.0747C174.092 47.5928 173.724 47.8655 173.31 47.961C172.465 48.161 171.661 47.9474 170.898 47.4928C171.161 47.4337 171.429 47.3791 171.725 47.3155C171.507 47.7292 171.534 47.7473 172.233 47.7473C172.088 47.6655 172.034 47.5837 172.084 47.5655C172.256 47.511 172.37 47.3064 172.57 47.3473C173.133 47.4746 173.71 47.2518 174.269 47.4291C174.759 47.5837 175.232 47.2973 175.772 47.3564C175.618 47.5882 175.373 47.6064 175.177 47.7383C175.468 47.8565 175.691 47.8246 175.968 47.6564C176.477 47.3518 177.099 47.3064 177.662 47.3291C179.788 47.4064 181.892 47.0836 184.009 47.07C185.971 47.0563 187.911 46.7245 189.869 46.7972C191.11 46.8427 192.313 46.6245 193.535 46.5154C194.589 46.4199 195.662 46.2971 196.706 46.629C196.82 46.6654 196.911 46.6563 197.02 46.6108C197.842 46.2562 198.701 46.2017 199.582 46.2562C200.981 46.3426 202.353 46.0107 203.753 45.9789C206.229 45.9198 208.695 45.7062 211.171 45.6971C211.498 45.6971 211.826 45.6471 212.148 45.6561C212.334 45.6607 212.621 45.397 212.702 45.8698C212.73 46.0107 213.175 45.9244 213.352 45.8107C213.834 45.497 214.374 45.5289 214.874 45.5834C215.887 45.688 216.886 45.4607 217.899 45.5561C218.408 45.6061 218.931 45.8425 219.44 45.6925C220.289 45.4379 221.152 45.5061 222.011 45.4879C223.592 45.4516 225.191 45.5698 226.745 45.4425C229.42 45.2243 232.087 45.5698 234.763 45.3425C236.707 45.1788 238.679 45.2925 240.642 45.3607C242.114 45.4107 243.585 45.5289 245.057 45.5743C245.98 45.6016 246.916 45.5925 247.856 45.7789C248.896 45.988 250.005 45.8425 251.086 45.8425C252.467 45.838 253.848 45.8198 255.229 45.8153C255.588 45.8153 255.961 45.7971 256.229 46.1153C256.315 46.2199 256.433 46.2062 256.528 46.1699C256.937 46.0153 257.305 46.1199 257.669 46.3108C257.75 46.3517 257.85 46.3835 257.919 46.3017C258.155 46.0198 258.464 46.1153 258.727 46.188C260.049 46.5426 261.353 46.2335 262.661 46.1017C262.825 46.0835 262.984 46.0426 263.143 46.038C267.809 45.988 272.479 45.9062 277.144 45.9107C281.719 45.9153 286.299 46.0017 290.873 46.0789C291.723 46.0926 292.572 46.138 293.413 46.3381C294.14 46.5108 294.898 46.3881 295.639 46.3244C297.433 46.1699 299.237 46.1971 301.022 46.3153C301.658 46.3562 302.204 46.1517 302.799 46.1517C306.669 46.138 310.522 46.5199 314.383 46.6699C315.96 46.729 317.532 46.8745 319.117 46.7381C320.989 46.579 322.847 46.9018 324.719 46.9609C326.499 47.02 328.276 47.0109 330.052 46.9245C330.161 46.9063 330.27 46.9109 330.488 46.9109Z" fill="#F48220"/>
<path d="M11.2484 60.7355C11.2484 60.3854 11.2484 60.1899 11.2484 59.9945C11.2484 57.3032 11.262 54.6165 11.2393 51.9252C11.2348 51.4615 11.3756 51.3433 11.8208 51.3615C12.6204 51.3978 13.4199 51.3842 14.2195 51.366C14.5194 51.3615 14.6238 51.4433 14.6238 51.757C14.6148 56.6258 14.6148 61.4992 14.6238 66.3681C14.6238 66.6908 14.5057 66.7909 14.2104 66.7499C14.1741 66.7454 14.1377 66.7499 14.1014 66.7499C13.32 66.7409 12.425 66.9682 11.7936 66.6545C11.1621 66.3453 10.7941 65.4998 10.3216 64.8815C8.44993 62.4266 6.57822 59.9717 4.70651 57.5169C4.62474 57.4078 4.53388 57.3032 4.34762 57.0804C4.34762 57.4032 4.34762 57.5896 4.34762 57.7805C4.34762 60.5809 4.33853 63.3768 4.35671 66.1771C4.36125 66.609 4.27947 66.7909 3.79792 66.7636C3.03924 66.7227 2.27148 66.7272 1.50826 66.7636C1.07213 66.7863 0.967643 66.6408 0.972186 66.2181C0.985815 62.0538 0.981272 57.8942 0.981272 53.73C0.981272 53.0572 0.990358 52.3843 0.976729 51.7115C0.972186 51.4615 1.04033 51.3569 1.31291 51.3615C2.14882 51.3751 2.98473 51.3797 3.82063 51.3569C4.13864 51.3478 4.2613 51.5524 4.41122 51.7524C6.56459 54.5846 8.71797 57.4168 10.8759 60.2536C10.9577 60.3763 11.0531 60.4854 11.2484 60.7355Z" fill="#F48220"/>
<path d="M114.265 51.5115C114.265 56.3985 114.256 61.2901 114.279 66.1772C114.279 66.6681 114.147 66.7954 113.674 66.7681C112.916 66.7227 112.043 66.9727 111.421 66.6727C110.821 66.3863 110.472 65.568 110.022 64.977C108.15 62.5221 106.283 60.0672 104.407 57.6123C104.298 57.4714 104.225 57.2987 104.039 57.2123C103.898 57.4305 103.957 57.6714 103.957 57.8987C103.952 60.6628 103.943 63.4222 103.962 66.1863C103.966 66.6318 103.857 66.7909 103.394 66.7681C102.653 66.7272 101.904 66.7318 101.159 66.7681C100.736 66.7863 100.604 66.6727 100.609 66.2317C100.632 63.7768 100.618 61.3265 100.618 58.8716C100.618 56.5622 100.627 54.2573 100.609 51.9479C100.604 51.516 100.686 51.3342 101.163 51.366C101.867 51.4115 102.58 51.3933 103.289 51.3706C103.612 51.3615 103.812 51.4569 104.012 51.7206C106.178 54.5892 108.359 57.4487 110.535 60.3082C110.617 60.4173 110.708 60.5218 110.876 60.7264C110.876 57.6578 110.876 54.7074 110.876 51.7524C110.935 51.6433 111.044 51.5979 111.149 51.6115C112.062 51.7161 112.952 51.5297 113.852 51.4297C113.997 51.416 114.147 51.3933 114.265 51.5115Z" fill="#F48120"/>
<path d="M16.9907 56.4576C16.9907 54.912 16.9998 53.3663 16.9817 51.8206C16.9771 51.4615 17.0816 51.3524 17.4405 51.3615C18.2764 51.3842 19.1123 51.3888 19.9482 51.3615C20.3162 51.3478 20.398 51.4797 20.3934 51.8252C20.3798 54.6074 20.3843 57.3896 20.3843 60.1718C20.3843 60.4809 20.398 60.7855 20.457 61.0946C20.9113 63.404 23.0147 64.5224 25.1681 63.5495C26.4992 62.9494 26.9262 61.7811 26.9353 60.4218C26.9535 57.9124 26.9353 55.4029 26.9444 52.8935C26.9444 52.4071 26.7354 51.7797 27.0353 51.4706C27.3351 51.1569 27.9666 51.3888 28.4481 51.3706C28.9569 51.3524 29.4658 51.3797 29.9746 51.3615C30.2562 51.3524 30.3562 51.4479 30.3516 51.7343C30.3289 54.862 30.4062 57.9897 30.2835 61.1128C30.1517 64.5633 27.8076 66.759 24.2595 66.9636C22.9602 67.0364 21.6745 66.9227 20.4707 66.3999C18.1356 65.3861 17.1679 63.4313 17.0225 61.031C16.9271 59.5081 17.0044 57.976 17.0044 56.4485C17.0044 56.4576 16.9998 56.4576 16.9907 56.4576Z" fill="#F48220"/>
<path d="M70.6932 51.3706C72.6558 51.3706 74.6184 51.3797 76.5809 51.3615C76.9489 51.3569 77.0943 51.4479 77.0761 51.8434C77.0443 52.5526 77.0443 53.2618 77.0761 53.9709C77.0943 54.3755 76.9807 54.5074 76.5628 54.4983C75.3816 54.471 74.2004 54.5119 73.0192 54.4801C72.5422 54.4665 72.3787 54.571 72.3832 55.0938C72.4105 58.7852 72.3878 62.4767 72.4059 66.1681C72.4105 66.6363 72.3105 66.8045 71.8154 66.7727C71.0567 66.7272 70.2889 66.7318 69.5257 66.7727C69.085 66.7954 68.9851 66.6409 68.9896 66.2226C69.0033 62.5494 68.9987 58.8762 68.9987 55.2029C68.9987 54.4937 68.9987 54.4937 68.3036 54.4937C67.1406 54.4937 65.9776 54.4801 64.8146 54.5028C64.4512 54.5074 64.2967 54.4301 64.3149 54.03C64.3467 53.2845 64.3422 52.5389 64.3149 51.7934C64.3013 51.4479 64.4239 51.3706 64.7465 51.3706C66.7363 51.3797 68.717 51.3706 70.6932 51.3706Z" fill="#F48120"/>
<path d="M37.675 51.3706C39.6194 51.3706 41.5592 51.3888 43.5036 51.3569C43.9716 51.3478 44.0806 51.4933 44.0579 51.9343C44.0215 52.6389 44.0306 53.3527 44.0533 54.0573C44.0624 54.3937 43.9579 54.4937 43.6263 54.4892C42.3906 54.471 41.1549 54.5028 39.9238 54.471C39.4695 54.4574 39.3468 54.5801 39.3513 55.0393C39.3695 58.7443 39.3513 62.4539 39.3741 66.159C39.3786 66.6272 39.2832 66.7954 38.7835 66.7636C38.0611 66.7136 37.3297 66.7227 36.6074 66.7591C36.1304 66.7818 35.9668 66.6727 35.9714 66.1499C35.9986 62.4812 35.9714 58.808 36.0032 55.1393C36.0077 54.5574 35.8305 54.4528 35.3081 54.471C34.1451 54.5074 32.9821 54.4619 31.8236 54.4937C31.3784 54.5074 31.2739 54.3573 31.2921 53.9391C31.3239 53.2299 31.3194 52.5207 31.2921 51.8115C31.2785 51.4569 31.3875 51.3524 31.7464 51.3524C33.718 51.3797 35.6942 51.3706 37.675 51.3706Z" fill="#F48120"/>
<path d="M63.2382 59.0716C63.2382 61.472 63.2291 63.8723 63.2473 66.2681C63.2518 66.6363 63.1701 66.7772 62.7703 66.7636C61.9707 66.7318 61.1711 66.7272 60.3716 66.7636C59.9355 66.7818 59.8264 66.6454 59.831 66.2181C59.8491 63.1086 59.8401 60.0036 59.8401 56.8941C59.8401 55.2029 59.8491 53.5118 59.831 51.8252C59.8264 51.4751 59.9173 51.3524 60.2807 51.3615C61.1166 51.3888 61.9525 51.3888 62.7885 51.3615C63.1473 51.3524 63.2427 51.4615 63.2427 51.8161C63.2291 54.2392 63.2382 56.6577 63.2382 59.0716Z" fill="#F48120"/>
<path d="M78.1937 59.0853C78.1937 56.6849 78.2028 54.2892 78.1846 51.8888C78.1801 51.4979 78.2619 51.3433 78.6889 51.3615C79.4521 51.3978 80.2153 51.4024 80.974 51.3615C81.4601 51.3342 81.6146 51.466 81.61 51.9797C81.5873 56.394 81.5964 60.8128 81.5964 65.227C81.5964 65.5543 81.5737 65.8817 81.6009 66.209C81.6373 66.6227 81.5146 66.7909 81.0649 66.7681C80.288 66.7318 79.5021 66.7363 78.7252 66.7681C78.2982 66.7863 78.171 66.6636 78.1755 66.2272C78.2028 63.845 78.1937 61.4629 78.1937 59.0853Z" fill="#F48220"/>
<path d="M39.2059 47.3564C36.094 47.3382 33.5272 46.3108 31.3147 44.365C31.1012 44.1787 30.9876 44.0286 31.2693 43.8195C31.4874 43.6559 31.5782 43.2012 32.0144 43.6013C34.0632 45.4925 36.4847 46.4608 39.2831 46.4199C40.7414 46.4017 42.1316 46.1016 43.3218 45.1924C44.7347 44.1105 45.2026 42.6603 44.8755 40.9464C44.6847 39.9326 44.0396 39.2325 43.1674 38.737C41.7136 37.9051 40.1009 37.555 38.4836 37.2141C37.0798 36.9186 35.7078 36.5367 34.4085 35.9048C30.9059 34.2046 31.1376 29.7494 33.8679 27.8219C35.4034 26.7399 37.1161 26.3808 38.9651 26.458C41.1685 26.549 43.1537 27.2354 44.9346 28.5356C45.1527 28.6947 45.4389 28.8265 45.0981 29.1402C44.8755 29.3493 44.8074 29.7403 44.3168 29.3812C41.968 27.6491 39.3467 26.9263 36.4665 27.6218C34.672 28.0537 33.3091 29.0766 32.8821 31.0087C32.5641 32.4498 33.1274 33.8454 34.3494 34.6637C35.626 35.5184 37.0889 35.8821 38.5608 36.2094C40.0827 36.5503 41.6046 36.864 43.0356 37.5277C44.8074 38.346 45.9477 39.6189 45.984 41.6556C46.0249 43.7513 45.0936 45.3197 43.2855 46.3562C41.9817 47.1109 40.5415 47.3564 39.2059 47.3564Z" fill="#832E09"/>
<path d="M124.9 33.3726C124.9 31.3178 124.914 29.263 124.886 27.2127C124.882 26.7717 125.041 26.7308 125.413 26.7172C125.822 26.7035 125.922 26.8217 125.922 27.2309C125.913 31.1769 125.904 35.1183 125.94 39.0643C125.954 40.4554 126.281 41.8056 126.963 43.0331C128.448 45.6971 130.87 46.6017 133.75 46.4381C138.02 46.1971 139.942 43.3467 140.319 39.7644C140.405 38.9325 140.414 38.096 140.414 37.2595C140.41 33.9136 140.419 30.5722 140.401 27.2263C140.396 26.8126 140.51 26.7172 140.91 26.7172C141.305 26.7172 141.423 26.8035 141.418 27.2218C141.396 31.1496 141.414 35.0729 141.377 39.0007C141.368 40.2963 141.109 41.5647 140.596 42.7648C139.369 45.6425 137.116 47.0836 134.063 47.3473C132.564 47.4746 131.083 47.3427 129.679 46.7654C127.126 45.7198 125.754 43.715 125.164 41.0964C124.964 40.2054 124.891 39.3053 124.886 38.3915C124.896 36.7185 124.896 35.0456 124.9 33.3726Z" fill="#832E09"/>
<path d="M244.085 39.7235C242.677 39.6735 241.382 39.278 240.21 38.4779C239.947 38.3006 239.874 38.1642 240.096 37.8869C240.414 37.4914 240.605 36.8868 241.005 36.6958C241.405 36.5049 241.8 37.1004 242.245 37.2732C242.981 37.5596 243.722 37.7596 244.521 37.655C244.889 37.605 245.198 37.4459 245.275 37.0595C245.344 36.7004 245.076 36.5049 244.812 36.3321C244.321 36.0094 243.754 35.8684 243.204 35.682C242.74 35.5275 242.3 35.3229 241.859 35.1047C239.937 34.1637 240.151 31.636 241.727 30.6404C242.981 29.854 244.321 29.8085 245.707 30.1586C246.288 30.3086 246.815 30.595 247.338 30.8859C247.601 31.0314 247.615 31.1769 247.451 31.3905C247.442 31.4042 247.433 31.4224 247.424 31.436C247.188 31.8633 247.047 32.4407 246.684 32.6771C246.27 32.9499 245.88 32.3407 245.43 32.227C244.826 32.0725 244.231 31.9543 243.608 32.0679C243.304 32.1225 243.04 32.2452 242.99 32.5862C242.936 32.9271 243.14 33.1453 243.426 33.259C244.017 33.4908 244.617 33.6954 245.207 33.9136C245.548 34.0364 245.884 34.1637 246.225 34.2909C248.492 35.1502 248.019 38.096 246.607 38.9961C245.825 39.5008 244.998 39.7326 244.085 39.7235Z" fill="#832E09"/>
<path d="M238.388 60.4173C238.388 61.7947 238.37 63.1722 238.397 64.5451C238.406 64.9906 238.297 65.1407 237.829 65.127C236.617 65.0997 236.612 65.1225 236.612 63.8996C236.612 61.8447 236.626 59.7899 236.603 57.7351C236.598 57.3168 236.739 57.2532 237.125 57.2123C237.957 57.1168 238.488 57.3987 238.97 58.0988C239.833 59.3535 240.801 60.54 241.732 61.7493C241.827 61.872 241.873 62.0448 242.114 62.0948C242.114 60.6673 242.136 59.258 242.1 57.8487C242.086 57.3441 242.236 57.2032 242.731 57.2168C243.881 57.2487 243.885 57.2259 243.885 58.3488C243.885 60.44 243.876 62.5312 243.894 64.6224C243.899 64.9906 243.803 65.0816 243.422 65.1316C242.468 65.2543 241.864 64.9133 241.323 64.1041C240.455 62.8085 239.456 61.6083 238.511 60.3673C238.47 60.39 238.429 60.4036 238.388 60.4173Z" fill="#01ACD3"/>
<path d="M89.642 35.5775C90.4552 34.15 91.5092 33.0408 93.0492 32.4634C95.3525 31.5997 98.946 31.9906 100.5 34.9229C101.09 36.0367 101.313 37.2414 101.313 38.4961C101.313 41.1874 101.304 43.8787 101.322 46.5699C101.322 46.9427 101.245 47.07 100.85 47.0609C100.482 47.0518 100.354 46.9745 100.359 46.579C100.377 44.0514 100.373 41.5238 100.363 38.9962C100.363 38.1779 100.313 37.3641 100.091 36.5686C99.3049 33.7954 97.0062 32.7271 94.5939 33.0135C91.6 33.3727 89.6602 35.7593 89.6466 38.9371C89.6375 41.4647 89.6375 43.9923 89.6511 46.5199C89.6511 46.8745 89.6375 47.07 89.1741 47.0655C88.7243 47.0609 88.688 46.8836 88.688 46.5154C88.6971 41.9875 88.6925 37.4596 88.6925 32.9362C88.6925 32.4771 89.1559 32.1952 89.5421 32.418C89.7056 32.5134 89.6329 32.6771 89.6375 32.8135C89.6466 33.7318 89.642 34.6546 89.642 35.5775Z" fill="#832E09"/>
<path d="M296.802 60.4173C296.802 61.8311 296.793 63.245 296.811 64.6633C296.816 65.0088 296.734 65.127 296.366 65.127C295.044 65.127 295.044 65.1407 295.044 63.8041C295.044 61.7675 295.053 59.7308 295.035 57.6942C295.03 57.3078 295.153 57.2487 295.516 57.2078C296.361 57.1168 296.911 57.3896 297.406 58.1079C298.351 59.4763 299.405 60.7719 300.514 62.2312C300.514 61.8357 300.514 61.5947 300.514 61.3538C300.514 60.1173 300.536 58.8807 300.5 57.6442C300.486 57.1578 300.786 57.1623 301.05 57.2441C301.463 57.3714 302.231 56.8304 302.258 57.6078C302.34 59.9854 302.285 62.3676 302.29 64.7497C302.29 65.0361 302.19 65.1498 301.908 65.1179C301.872 65.1134 301.836 65.1134 301.799 65.1179C300.877 65.2861 300.277 64.9179 299.75 64.136C298.873 62.8313 297.865 61.6175 296.911 60.3627C296.875 60.3809 296.838 60.3991 296.802 60.4173Z" fill="#127F3C"/>
<path d="M47.7377 39.7326C47.7377 36.5185 49.5821 33.75 52.4987 32.5771C55.3517 31.4315 58.5999 32.2043 60.8305 34.5137C61.1667 34.8592 60.8578 34.9547 60.7079 35.132C60.5262 35.3456 60.3899 35.5184 60.09 35.1956C59.0497 34.0864 57.8049 33.2863 56.2739 33.0544C52.8076 32.5225 49.7866 34.5864 48.9325 38.0324C48.1057 41.3783 49.8638 44.9197 53.0075 46.0744C55.7697 47.0927 58.1275 46.2881 60.14 44.256C60.458 43.9377 60.8941 44.0059 61.0986 44.4105C61.1894 44.5833 61.0395 44.6378 60.9668 44.7197C59.2859 46.6199 57.1916 47.5837 54.6475 47.37C50.627 47.0518 47.7377 43.8286 47.7377 39.7326Z" fill="#832E09"/>
<path d="M272.379 61.2037C272.379 60.0399 272.388 58.8762 272.374 57.7169C272.37 57.3941 272.415 57.2214 272.81 57.2259C274.428 57.2487 276.04 57.2441 277.658 57.2305C277.971 57.2259 278.048 57.3396 278.058 57.6396C278.085 58.8307 278.098 58.8307 276.926 58.8307C276.127 58.8307 275.327 58.8398 274.528 58.8261C274.241 58.8216 274.16 58.9262 274.146 59.2035C274.078 60.4355 274.073 60.4355 275.305 60.4355C275.977 60.4355 276.649 60.4446 277.322 60.4309C277.603 60.4264 277.69 60.5218 277.699 60.8037C277.74 61.9629 277.753 61.9629 276.586 61.9629C275.895 61.9629 275.205 61.972 274.514 61.9584C274.269 61.9539 274.169 62.0175 274.151 62.2903C274.06 63.5268 274.051 63.5268 275.3 63.5268C276.136 63.5268 276.972 63.5359 277.808 63.5222C278.076 63.5177 278.185 63.5904 278.203 63.8859C278.276 65.1316 278.285 65.1316 277.058 65.1316C275.659 65.1316 274.26 65.1179 272.865 65.1407C272.479 65.1452 272.374 65.027 272.383 64.6497C272.392 63.4904 272.379 62.3494 272.379 61.2037Z" fill="#01ACD3"/>
<path d="M214.229 61.1537C214.229 60.0081 214.242 58.8625 214.22 57.7169C214.211 57.3532 214.283 57.2123 214.688 57.2168C216.287 57.2396 217.886 57.2396 219.485 57.2168C219.862 57.2123 219.926 57.3441 219.926 57.6805C219.921 58.8216 219.935 58.8216 218.813 58.8216C218.013 58.8216 217.213 58.8307 216.414 58.8171C216.119 58.8125 216.01 58.8852 216 59.208C215.973 60.4218 215.96 60.4218 217.163 60.4218C217.818 60.4218 218.472 60.4309 219.126 60.4173C219.399 60.4082 219.499 60.4764 219.508 60.7764C219.544 61.9539 219.553 61.9539 218.363 61.9539C217.709 61.9539 217.054 61.9675 216.4 61.9493C216.087 61.9402 216.01 62.0448 216.005 62.3539C215.987 63.5222 215.973 63.5223 217.159 63.5223C217.995 63.5223 218.831 63.5359 219.667 63.5177C219.953 63.5132 220.03 63.6041 220.039 63.8859C220.075 65.1225 220.089 65.1225 218.853 65.1225C217.454 65.1225 216.055 65.1134 214.656 65.1316C214.32 65.1361 214.22 65.0406 214.229 64.7042C214.242 63.5177 214.229 62.3357 214.229 61.1537Z" fill="#832E09"/>
<path d="M172.597 61.1674C172.597 59.9854 172.606 58.8034 172.592 57.626C172.588 57.3259 172.665 57.2214 172.983 57.2259C174.618 57.2396 176.249 57.2441 177.885 57.2259C178.248 57.2214 178.294 57.3623 178.294 57.6714C178.298 58.8352 178.312 58.8352 177.144 58.8352C176.363 58.8352 175.582 58.8443 174.8 58.8307C174.491 58.8261 174.35 58.8762 174.35 59.2398C174.337 60.44 174.319 60.44 175.532 60.44C176.204 60.44 176.876 60.4491 177.549 60.4355C177.808 60.4309 177.88 60.5173 177.894 60.7764C177.953 61.9675 177.962 61.9675 176.758 61.9675C176.086 61.9675 175.413 61.9766 174.741 61.9629C174.473 61.9584 174.364 62.022 174.355 62.3221C174.31 63.5313 174.3 63.5313 175.518 63.5313C176.354 63.5313 177.19 63.5404 178.026 63.5268C178.303 63.5222 178.394 63.5995 178.407 63.8905C178.457 65.1361 178.466 65.1361 177.222 65.1361C175.84 65.1361 174.459 65.1225 173.083 65.1452C172.71 65.1497 172.583 65.0679 172.592 64.6724C172.615 63.4904 172.597 62.3312 172.597 61.1674Z" fill="#832E09"/>
<path d="M311.921 61.1537C311.921 60.0081 311.935 58.8625 311.912 57.7169C311.907 57.3532 311.975 57.2123 312.38 57.2168C313.979 57.2396 315.578 57.2396 317.173 57.2168C317.55 57.2123 317.613 57.3441 317.613 57.6805C317.609 58.8216 317.622 58.8216 316.5 58.8216C315.701 58.8216 314.901 58.8307 314.102 58.8171C313.802 58.8125 313.697 58.8898 313.688 59.208C313.656 60.4218 313.647 60.4218 314.851 60.4218C315.487 60.4218 316.123 60.44 316.759 60.4173C317.082 60.4036 317.195 60.4809 317.195 60.831C317.195 61.9493 317.213 61.9493 316.1 61.9493C315.428 61.9493 314.756 61.9629 314.083 61.9448C313.765 61.9357 313.693 62.0448 313.688 62.3494C313.67 63.5132 313.656 63.5132 314.842 63.5132C315.678 63.5132 316.514 63.5268 317.35 63.5086C317.64 63.5041 317.709 63.595 317.718 63.8768C317.759 65.1134 317.768 65.1134 316.532 65.1134C315.133 65.1134 313.734 65.1043 312.334 65.1225C311.998 65.127 311.903 65.027 311.907 64.6951C311.935 63.5177 311.921 62.3357 311.921 61.1537Z" fill="#127F3C"/>
<path d="M248.574 65.1952C247.415 65.2043 246.416 64.7906 245.521 64.0769C245.294 63.8996 245.216 63.7632 245.443 63.5223C245.716 63.2313 245.898 62.7767 246.225 62.6358C246.602 62.4767 246.843 63.0131 247.193 63.1768C247.67 63.4041 248.137 63.6314 248.687 63.6132C249.141 63.5995 249.546 63.4677 249.641 62.9767C249.737 62.4812 249.364 62.2585 248.969 62.1266C248.319 61.9039 247.638 61.7584 247.002 61.5038C245.748 60.9992 245.253 59.9036 245.684 58.6261C246.039 57.576 246.92 57.1941 247.919 57.0759C249.014 56.9486 250.041 57.2123 250.981 57.8078C251.249 57.9761 251.404 58.117 251.131 58.4261C250.895 58.6989 250.763 59.1262 250.477 59.2762C250.182 59.4308 249.909 58.9989 249.591 58.8898C249.091 58.7171 248.601 58.5398 248.06 58.6489C247.706 58.7216 247.451 58.9216 247.411 59.2853C247.365 59.6717 247.615 59.8945 247.951 60.0036C248.537 60.1945 249.132 60.3446 249.714 60.5446C250.913 60.9537 251.436 61.6084 251.477 62.6858C251.522 63.9496 250.645 64.9543 249.337 65.1316C249.078 65.1725 248.823 65.177 248.574 65.1952Z" fill="#00ABD3"/>
<path d="M322.047 65.2043C320.866 65.2134 319.857 64.777 318.949 64.0496C318.735 63.8814 318.699 63.7541 318.899 63.5404C319.172 63.2495 319.353 62.7994 319.676 62.6494C320.057 62.4767 320.298 62.9995 320.63 63.1677C321.175 63.4404 321.711 63.6859 322.338 63.6041C322.724 63.5541 323.042 63.3859 323.097 62.954C323.147 62.5449 322.91 62.2994 322.551 62.1812C321.884 61.9584 321.193 61.7947 320.534 61.5402C319.244 61.0356 318.767 60.0354 319.126 58.708C319.349 57.8851 319.957 57.4351 320.721 57.2214C322.093 56.8395 323.374 57.1168 324.555 57.8942C324.755 58.026 324.841 58.1261 324.655 58.3534C324.414 58.6443 324.278 59.0807 323.978 59.258C323.628 59.4672 323.356 58.9716 323.006 58.8762C322.483 58.7307 321.975 58.517 321.42 58.6898C321.116 58.7852 320.916 58.9716 320.884 59.2989C320.848 59.6399 321.039 59.8581 321.325 59.9718C321.675 60.1127 322.043 60.2127 322.406 60.3309C322.733 60.4355 323.069 60.5127 323.387 60.64C324.637 61.1492 325.082 61.9175 324.914 63.245C324.796 64.1905 323.919 64.9816 322.801 65.1407C322.556 65.1725 322.302 65.1816 322.047 65.2043Z" fill="#127F3C"/>
<path d="M307.114 62.1902C307.669 60.8082 308.177 59.5353 308.686 58.2624C309.1 57.2259 309.1 57.2259 310.208 57.2259C311.039 57.2259 311.044 57.2259 310.726 58.0124C309.836 60.2263 308.936 62.4403 308.055 64.6633C307.923 64.9952 307.778 65.1361 307.396 65.127C306.365 65.0997 306.365 65.1225 305.983 64.1678C305.12 62.0175 304.266 59.8626 303.389 57.7214C303.23 57.3305 303.235 57.2077 303.712 57.2123C305.12 57.2259 305.12 57.2077 305.647 58.5215C306.11 59.7035 306.587 60.881 307.114 62.1902Z" fill="#127F3C"/>
<path d="M79.702 36.4049C79.702 39.7872 79.6929 43.1649 79.7111 46.5472C79.7111 46.9518 79.6157 47.0654 79.2068 47.0609C78.8116 47.0563 78.6889 46.9745 78.6935 46.5563C78.7071 39.8144 78.7117 33.0726 78.6935 26.3262C78.6935 25.8625 78.8797 25.8625 79.2296 25.8489C79.6021 25.8352 79.7157 25.9261 79.7157 26.3217C79.6929 29.6812 79.702 33.0408 79.702 36.4049Z" fill="#822E09"/>
<path d="M329.711 62.0266C329.711 62.9358 329.702 63.845 329.716 64.7542C329.72 65.0361 329.634 65.1179 329.348 65.127C327.949 65.1725 327.949 65.1816 327.949 63.7723C327.949 62.263 327.939 60.7537 327.958 59.2444C327.962 58.8943 327.876 58.7625 327.508 58.7852C327.017 58.8171 326.527 58.7807 326.036 58.7989C325.772 58.808 325.704 58.708 325.691 58.4534C325.623 57.235 325.613 57.235 326.804 57.235C328.348 57.235 329.893 57.2487 331.438 57.2259C331.815 57.2214 331.928 57.3214 331.924 57.7078C331.91 58.7989 331.928 58.7989 330.852 58.7989C329.711 58.7989 329.711 58.7989 329.711 59.9627C329.711 60.6446 329.711 61.3356 329.711 62.0266Z" fill="#127F3C"/>
<path d="M226.558 63.6995C225.291 63.695 224.287 62.6767 224.296 61.4038C224.305 60.1354 225.323 59.1353 226.599 59.1489C227.835 59.1625 228.834 60.1718 228.843 61.4129C228.843 62.6721 227.812 63.7041 226.558 63.6995Z" fill="#F48220"/>
<path d="M282.81 61.4174C282.814 60.1445 283.823 59.1398 285.095 59.1489C286.367 59.158 287.357 60.1763 287.339 61.4583C287.321 62.713 286.335 63.6904 285.081 63.6995C283.818 63.7086 282.81 62.6948 282.81 61.4174Z" fill="#F48220"/>
<path d="M234.727 61.1901C234.727 62.3539 234.717 63.5177 234.731 64.677C234.736 64.9906 234.672 65.1225 234.318 65.127C232.932 65.1543 232.937 65.1679 232.937 63.7905C232.937 61.7902 232.95 59.7945 232.928 57.7942C232.923 57.3623 233.009 57.1896 233.486 57.1987C234.727 57.2259 234.727 57.2032 234.727 58.4579C234.727 59.3762 234.727 60.2809 234.727 61.1901Z" fill="#03ACD4"/>
<path d="M293.136 61.1537C293.136 62.3357 293.127 63.5177 293.14 64.6951C293.145 65.027 293.045 65.1225 292.709 65.127C291.35 65.1406 291.35 65.1543 291.35 63.7814C291.35 61.7629 291.364 59.749 291.341 57.7305C291.337 57.3168 291.45 57.2123 291.855 57.2123C293.136 57.2214 293.136 57.2077 293.136 58.4806C293.136 59.3717 293.136 60.2627 293.136 61.1537Z" fill="#147F3D"/>
<path d="M83.7361 39.7189C83.7361 37.4323 83.7452 35.1456 83.727 32.8589C83.7225 32.4588 83.8542 32.3816 84.2177 32.3952C84.5402 32.4088 84.731 32.3952 84.731 32.8362C84.7129 37.4277 84.7129 42.0238 84.731 46.6153C84.731 47.0654 84.5311 47.0381 84.2131 47.0563C83.8406 47.0745 83.727 46.9745 83.727 46.5835C83.7452 44.2923 83.7361 42.0056 83.7361 39.7189Z" fill="#822E09"/>
<path d="M83.6089 27.4673C83.6089 27.4491 83.6043 27.4309 83.6089 27.4127C83.6543 27.1536 83.459 26.7672 83.7088 26.6626C84.0041 26.5399 84.3857 26.6217 84.7265 26.6308C84.9127 26.6354 84.8809 26.799 84.8809 26.9172C84.8855 27.19 84.8855 27.4582 84.8809 27.731C84.8718 28.5129 84.9718 28.4311 84.1858 28.422C83.4862 28.4174 83.6225 28.5629 83.6089 27.4673Z" fill="#86330F"/>
<path d="M42.4223 2.08651C42.4495 1.36823 42.2542 0.822696 41.65 0.436279C41.3592 0.436279 41.0685 0.436279 40.7777 0.436279C40.178 0.79542 39.96 1.30913 39.9872 2.01832C40.1326 5.96431 40.2416 9.90577 40.3598 13.8518C40.2916 14.761 40.437 15.6611 40.4688 16.5658C40.4643 16.9249 40.4688 17.2886 40.4552 17.6477C40.4461 17.8841 40.5415 18.0569 40.7686 18.0751C41.0912 18.1024 41.4365 18.1433 41.7317 18.0569C41.9952 17.9796 41.8181 17.6341 41.8953 17.425C42.0225 17.0749 41.9771 16.7112 41.9589 16.3521C41.9634 15.9884 41.9634 15.6293 41.968 15.2656C42.1179 10.8786 42.2542 6.47802 42.4223 2.08651Z" fill="#F48220"/>
<path d="M70.6297 12.988C70.4934 12.5061 70.13 12.2334 69.6439 12.1561C69.1032 12.0697 68.7171 12.3561 68.3673 12.7334C67.0952 14.1018 65.8096 15.4656 64.533 16.8294C62.7476 18.7388 60.9667 20.6527 59.1859 22.5666C58.8452 22.8121 58.6044 23.153 58.3364 23.4622C57.9593 23.6986 57.7821 24.1214 57.455 24.4032C57.3324 24.5123 57.396 24.6169 57.4777 24.7305C58.0956 25.5943 58.2818 25.617 59.0314 24.8806C59.1359 24.7805 59.2268 24.6669 59.3222 24.5623C59.6357 24.2623 59.9537 23.9577 60.2671 23.6577C60.4716 23.4804 60.6805 23.3122 60.8804 23.1303C62.7612 21.3664 64.642 19.6026 66.5228 17.8341C67.754 16.6794 68.9806 15.5156 70.2163 14.3655C70.6297 13.979 70.7841 13.5199 70.6297 12.988Z" fill="#F48220"/>
<path d="M57.5368 5.3824C57.8866 4.60502 57.6913 3.91856 57.0507 3.60488C56.3466 3.25938 55.6242 3.57306 55.3108 4.38681C54.5475 6.38254 53.7934 8.38736 53.0438 10.3876C52.217 12.5925 51.3947 14.8019 50.5724 17.0067C50.3089 17.4523 50.1999 17.9569 50.0409 18.4433C49.8456 18.7115 49.7774 19.0297 49.6638 19.3298C49.6139 19.4662 49.5639 19.6298 49.7093 19.7253C50.0273 19.9344 50.3725 20.1526 50.7496 20.1481C51.0449 20.1435 51.0086 19.7571 51.1267 19.548C51.2539 19.3298 51.3402 19.0888 51.4401 18.8615C51.6173 18.4615 51.799 18.066 51.9762 17.6659C52.694 16.0839 53.4163 14.5018 54.1341 12.9198C55.2744 10.4058 56.4056 7.89184 57.5368 5.3824Z" fill="#F48220"/>
<path d="M16.2865 40.9146C16.0548 40.91 15.8186 40.9191 15.5869 40.9191C14.8963 40.8964 14.2149 40.7464 13.5198 40.8237C12.0524 40.7782 10.5805 40.7282 9.11312 40.6873C6.50091 40.61 3.8887 40.5327 1.27649 40.4691C0.504179 40.4463 0.0044519 40.9328 -9.10762e-05 41.6374C-0.00463405 42.3784 0.490551 42.8649 1.28103 42.8785C1.44458 42.883 1.60812 42.8739 1.77167 42.8694C4.62012 42.7785 7.46857 42.6967 10.3125 42.5921C11.6345 42.5466 12.961 42.5785 14.283 42.4375C14.7146 42.433 15.1462 42.4284 15.5823 42.4284C15.9049 42.433 16.2274 42.4466 16.55 42.433C16.9452 42.4193 17.1497 42.2602 17.1315 41.7965C17.0951 40.9328 17.1269 40.9282 16.2865 40.9146Z" fill="#F48220"/>
<path d="M32.2778 18.2205C32.1279 17.7341 31.9962 17.2386 31.7418 16.7885C31.7281 16.7158 31.7191 16.6431 31.6963 16.5749C30.1608 12.5107 28.6253 8.44193 27.0852 4.37773C26.7899 3.60489 26.1312 3.29121 25.4498 3.55943C24.7456 3.83674 24.4957 4.53684 24.841 5.31877C25.2862 6.33254 25.7405 7.33723 26.1948 8.34191C27.5713 11.3787 28.9478 14.4109 30.3244 17.4432C30.5015 17.8432 30.6833 18.2433 30.8604 18.6479C30.9513 19.0798 31.2193 19.4298 31.392 19.8253C31.4601 19.9844 31.5555 20.0435 31.7281 19.9617C31.9735 19.8435 32.2233 19.748 32.4732 19.6389C32.6458 19.5662 32.7594 19.4162 32.6867 19.2525C32.5368 18.9206 32.5504 18.5115 32.2778 18.2205Z" fill="#F48220"/>
<path d="M23.9098 23.344C23.569 23.0531 23.4055 22.603 23.0102 22.3575C21.7382 20.9891 20.4662 19.6208 19.1941 18.2569C17.4951 16.4385 15.7915 14.6292 14.0969 12.8107C13.7426 12.4334 13.3746 12.0697 12.8022 12.1425C12.3206 12.2016 11.9526 12.4561 11.78 12.9289C11.5847 13.4654 11.7255 13.92 12.1389 14.3064C14.0288 16.0839 15.9187 17.8614 17.8131 19.639C19.176 20.9164 20.5479 22.1848 21.9108 23.4577C22.2107 23.7895 22.4742 24.1578 22.8921 24.3578C23.728 25.3261 23.728 25.3261 24.3868 24.8306C24.8729 24.4623 24.882 24.3169 24.4504 23.8668C24.2777 23.6895 24.0915 23.5213 23.9098 23.344Z" fill="#F48220"/>
<path d="M18.8579 31.5815C18.7443 31.5269 18.6262 31.486 18.5126 31.4405C18.0265 31.3042 17.6449 30.9041 17.1134 30.8859C16.8317 30.7314 16.5546 30.5632 16.2638 30.4313C14.2331 29.5085 12.2024 28.5902 10.1672 27.6719C8.38178 26.8672 6.60093 26.0625 4.81554 25.2533C4.30219 25.0215 3.82063 25.0669 3.41176 25.467C3.0347 25.8307 2.95292 26.2808 3.11193 26.7717C3.26184 27.2309 3.63891 27.4355 4.06141 27.5946C6.01489 28.3265 7.96383 29.0675 9.91276 29.7994C12.1343 30.6313 14.3558 31.4587 16.5773 32.2907C17.0089 32.5725 17.5313 32.6316 17.9902 32.8362C18.2491 33.0408 18.5853 33.0635 18.8715 33.1908C19.1168 33.2999 19.2259 33.1999 19.3304 32.9908C19.8165 32.0497 19.821 32.0497 18.8579 31.5815Z" fill="#F48220"/>
<path d="M186.775 48.2292C186.339 48.8384 185.703 48.7248 185.099 48.7202C185.662 48.5884 186.271 48.6111 186.775 48.2292Z" fill="#F48220"/>
<path d="M181.601 48.5793C181.942 48.5202 182.128 48.6066 182.283 48.7929C182.078 48.7566 181.846 48.8248 181.601 48.5793Z" fill="#F48220"/>
<path d="M99.4412 56.935C98.5235 53.4254 95.407 51.1251 91.5773 51.1251C86.0939 51.1251 82.3187 55.853 83.618 61.0947C84.4903 64.6042 87.575 66.9364 91.4183 67C96.9244 67.0864 100.818 62.2039 99.4412 56.935ZM91.5728 63.845C88.9469 63.845 86.9344 61.772 86.9162 59.0444C86.8981 56.3531 88.9197 54.2437 91.5092 54.2437C94.1532 54.2437 96.1521 56.3485 96.1521 59.1171C96.1476 61.8175 94.185 63.845 91.5728 63.845Z" fill="#F48120"/>
<path d="M54.652 61.2674C54.8155 61.1947 54.9291 61.1401 55.0427 61.0901C58.0501 59.7035 58.9269 55.5439 56.719 53.0663C55.6878 51.9116 54.3113 51.4433 52.8212 51.4069C50.3861 51.3433 47.9511 51.3842 45.5161 51.3706C45.1799 51.366 45.0845 51.4751 45.0845 51.8024C45.0936 56.6395 45.0936 61.4765 45.0845 66.3135C45.0845 66.6909 45.2162 66.7727 45.5569 66.7636C46.3565 66.7454 47.1561 66.7363 47.9556 66.7682C48.3736 66.7818 48.519 66.6818 48.5099 66.2317C48.4781 64.9043 48.5053 63.5768 48.4917 62.2493C48.4872 61.9493 48.5689 61.8311 48.8869 61.8402C49.4503 61.8629 50.0136 61.8811 50.5769 61.8357C51.004 61.8038 51.2311 61.9766 51.4537 62.313C52.3487 63.6814 53.2618 65.0361 54.175 66.3908C54.2795 66.5499 54.3476 66.7545 54.6066 66.7545C55.8332 66.75 57.0598 66.7545 58.3954 66.7545C57.1097 64.8724 55.8877 63.0813 54.652 61.2674ZM54.4248 57.085C54.2477 58.0533 53.4436 58.7443 52.3214 58.7943C51.163 58.8443 50 58.8125 48.8415 58.8307C48.578 58.8352 48.4963 58.7398 48.5008 58.4852C48.5144 57.8487 48.5053 57.2168 48.5053 56.5804C48.5053 55.9803 48.5144 55.3848 48.5008 54.7847C48.4963 54.5256 48.5871 54.4392 48.8415 54.4437C49.9636 54.4574 51.0903 54.4119 52.2124 54.4619C53.8161 54.5346 54.6929 55.6121 54.4248 57.085Z" fill="#F48120"/>
<path d="M119.058 32.7953C119.058 32.3452 118.822 32.4089 118.549 32.3998C118.263 32.3952 118.036 32.3634 118.054 32.7998C118.09 33.7545 118.067 34.7137 118.067 35.8275C116.8 33.7727 115.133 32.5089 112.861 32.1634C110.599 31.8179 108.564 32.3771 106.851 33.9045C104.03 36.4231 103.748 40.7237 106.206 43.4922C107.859 45.3607 109.963 46.1653 112.439 45.938C114.919 45.7107 116.727 44.3924 118.077 42.1648C118.036 43.5195 118.117 44.7015 117.981 45.8789C117.709 48.2656 116.214 50.0659 113.888 50.6114C111.071 51.2706 108.486 50.6387 106.156 48.9839C105.706 48.6657 105.642 48.9612 105.429 49.1885C105.129 49.5067 105.343 49.6294 105.583 49.7976C107.178 50.9114 108.941 51.5706 110.876 51.7479C112.021 51.8707 113.147 51.7297 114.265 51.507C117.609 50.5114 118.976 48.0338 119.026 45.1152C119.099 41.0101 119.035 36.905 119.058 32.7953ZM118.095 39.8235C117.777 42.2921 115.573 44.5333 112.938 44.9561C112.543 45.0197 112.152 45.0834 111.812 45.0606C108.536 45.0561 105.924 42.7012 105.611 39.5326C105.306 36.4503 107.378 33.6954 110.558 33.109C114.819 32.3225 118.622 35.7321 118.095 39.8235Z" fill="#832E09"/>
<path d="M179.23 33.1953C179.234 33.1044 179.307 33.0862 179.37 33.0544C180.147 32.6362 180.674 32.0361 180.783 31.1223C181.033 29.1038 179.916 27.6718 177.817 27.3991C175.886 27.149 173.937 27.3354 171.997 27.2763C171.684 27.2672 171.702 27.44 171.702 27.6491C171.706 28.7947 171.702 29.9358 171.702 31.0814C171.702 33.7499 171.697 36.423 171.706 39.0916C171.706 39.2916 171.566 39.6007 171.988 39.5917C174.128 39.5416 176.272 39.7235 178.407 39.4826C180.188 39.2825 181.36 38.096 181.515 36.4458C181.66 34.9319 180.906 33.8636 179.23 33.1953ZM174.469 30.8359C174.469 29.6085 174.469 29.5994 175.677 29.6266C176.181 29.6357 176.695 29.6403 177.185 29.7903C177.739 29.9585 177.976 30.2995 177.985 30.9359C177.994 31.5678 177.762 31.9179 177.203 32.0861C176.39 32.3316 175.55 32.227 174.718 32.2497C174.487 32.2543 174.459 32.1179 174.464 31.9315C174.473 31.6042 174.464 31.2769 174.464 30.9496C174.469 30.9086 174.469 30.8723 174.469 30.8359ZM177.744 37.0777C177.144 37.255 176.526 37.2231 175.809 37.2231C175.445 37.1731 174.85 37.4323 174.55 37.1231C174.278 36.8458 174.478 36.2594 174.473 35.8093C174.464 34.4591 174.469 34.4591 175.809 34.4591C176.445 34.4591 177.081 34.4319 177.703 34.591C178.353 34.7592 178.657 35.132 178.684 35.7866C178.703 36.4412 178.38 36.8913 177.744 37.0777Z" fill="#832E09"/>
<path d="M228.457 31.4451C227.117 30.0312 224.864 29.5448 223.033 30.2631C221.107 31.0223 220.035 32.6089 220.007 34.741C219.98 36.8913 220.957 38.5006 222.756 39.2871C224.623 40.1008 227.122 39.7235 228.48 38.4369C228.666 38.2642 228.698 38.1414 228.521 37.9505C228.157 37.5686 227.798 37.1868 227.449 36.7913C227.285 36.6049 227.167 36.6367 227.003 36.7867C226.558 37.1868 226.027 37.3959 225.441 37.4914C224.11 37.7005 222.897 36.9686 222.669 35.7866C224.505 35.7866 226.336 35.7866 228.166 35.7866C229.548 35.7866 229.548 35.7866 229.511 34.3955C229.479 33.2953 229.243 32.2725 228.457 31.4451ZM226.404 33.8863C225.859 33.859 225.313 33.8818 224.768 33.8818C224.205 33.8818 223.642 33.8727 223.078 33.8863C222.783 33.8954 222.683 33.809 222.778 33.509C223.01 32.7725 223.914 32.1725 224.836 32.1679C225.777 32.1634 226.445 32.6316 226.713 33.4408C226.817 33.7681 226.79 33.9045 226.404 33.8863Z" fill="#832E09"/>
<path d="M191.868 30.1086C191.25 30.1267 190.632 30.1358 190.019 30.104C189.678 30.0904 189.592 30.1904 189.597 30.5268C189.615 32.0725 189.601 33.6136 189.606 35.1593C189.606 35.5457 189.565 35.9185 189.406 36.2776C189.056 37.0777 188.22 37.5459 187.375 37.4141C186.648 37.3005 186.198 36.7231 186.112 35.7957C186.089 35.5593 186.094 35.3229 186.094 35.0865C186.094 33.5772 186.08 32.0725 186.103 30.5632C186.108 30.2086 186.012 30.0904 185.653 30.1086C185.035 30.1358 184.418 30.1313 183.804 30.1086C183.5 30.0995 183.4 30.1858 183.404 30.4995C183.418 32.3543 183.391 34.2046 183.418 36.0594C183.441 37.7551 184.245 38.9552 185.64 39.478C187.134 40.0417 188.438 39.7144 189.61 38.4097C189.61 38.7007 189.628 38.9052 189.606 39.1053C189.56 39.4689 189.665 39.6235 190.069 39.6008C190.664 39.5644 191.268 39.578 191.863 39.5962C192.154 39.6053 192.286 39.5371 192.281 39.2098C192.272 36.3049 192.268 33.3954 192.281 30.4904C192.281 30.154 192.154 30.0995 191.868 30.1086Z" fill="#832E09"/>
<path d="M218.036 33.1863C217.949 31.3633 216.541 30.0631 214.742 29.9585C213.67 29.8949 212.77 30.3268 211.903 31.1087C211.903 30.8678 211.889 30.7586 211.907 30.6586C211.989 30.1949 211.794 30.0722 211.348 30.104C210.771 30.1449 210.185 30.1267 209.604 30.1086C209.331 30.0995 209.227 30.1586 209.227 30.4632C209.24 33.3908 209.236 36.314 209.227 39.2416C209.227 39.5508 209.345 39.6008 209.613 39.5962C210.213 39.5826 210.812 39.5599 211.412 39.6008C211.844 39.628 211.921 39.4553 211.912 39.0689C211.894 37.596 211.898 36.123 211.907 34.6546C211.907 34.3273 211.912 34 211.966 33.6772C212.125 32.7226 212.92 32.0725 213.879 32.0816C214.76 32.0906 215.237 32.5816 215.396 33.6681C215.423 33.8636 215.428 34.0636 215.428 34.2637C215.433 35.9003 215.437 37.5368 215.423 39.1689C215.419 39.5008 215.51 39.6099 215.85 39.5962C216.487 39.5689 217.123 39.5826 217.759 39.5917C217.981 39.5962 218.09 39.5417 218.086 39.2916C218.067 37.255 218.131 35.2184 218.036 33.1863Z" fill="#832E09"/>
<path d="M236.735 34.1682C236.398 34.0363 236.049 33.9363 235.708 33.8136C235.231 33.6454 234.754 33.4772 234.281 33.2953C233.982 33.1771 233.723 32.9817 233.773 32.6134C233.823 32.2134 234.145 32.1134 234.481 32.0588C235.245 31.9406 235.958 32.0952 236.644 32.4225C237.452 32.8089 237.452 32.8089 237.889 32.0315C238.47 30.9905 238.479 30.9632 237.366 30.4859C235.653 29.7494 233.954 29.6585 232.346 30.7723C230.97 31.7269 230.779 34.1318 232.555 35.0456C233.137 35.3456 233.727 35.6047 234.354 35.8002C234.786 35.9321 235.217 36.0775 235.599 36.3276C235.885 36.514 236.149 36.7276 236.049 37.114C235.958 37.4777 235.653 37.6096 235.308 37.655C234.509 37.7596 233.773 37.5505 233.032 37.2686C232.591 37.1004 232.196 36.5003 231.806 36.6867C231.406 36.8777 231.219 37.4868 230.892 37.8732C230.633 38.1824 230.77 38.3188 231.029 38.4915C232.192 39.2689 233.468 39.6644 234.858 39.7144C235.485 39.7326 236.09 39.6326 236.671 39.3962C237.902 38.887 238.556 37.9096 238.579 36.6231C238.611 35.3047 237.857 34.6046 236.735 34.1682Z" fill="#832E09"/>
<path d="M199.814 34.0545C199.114 33.8091 198.41 33.5772 197.715 33.3226C197.402 33.2044 197.097 33.018 197.147 32.6225C197.202 32.2043 197.542 32.1043 197.906 32.0543C198.851 31.9315 199.705 32.1907 200.491 32.6862C200.736 32.8407 200.841 32.8317 200.968 32.568C201.168 32.1634 201.386 31.7633 201.627 31.3815C201.767 31.1541 201.731 31.0359 201.517 30.9041C200.486 30.2768 199.387 29.904 198.169 29.9631C197.202 29.9994 196.32 30.2677 195.562 30.8996C194.394 31.8679 194.172 34.1227 195.925 35.041C196.407 35.2956 196.893 35.5229 197.411 35.6957C197.942 35.873 198.487 36.0139 198.969 36.323C199.26 36.5049 199.514 36.7186 199.423 37.1095C199.337 37.4823 199.032 37.6096 198.692 37.6596C197.897 37.7732 197.156 37.555 196.416 37.2823C195.966 37.1186 195.593 36.4912 195.153 36.7276C194.753 36.9413 194.553 37.5232 194.249 37.9278C194.085 38.146 194.067 38.2688 194.321 38.437C195.875 39.4826 197.561 39.9645 199.428 39.6008C201.045 39.2825 201.985 38.0915 201.949 36.4731C201.917 35.2638 201.308 34.5773 199.814 34.0545Z" fill="#832E09"/>
<path d="M206.369 30.1085C205.733 30.1222 205.097 30.1313 204.466 30.104C204.111 30.0903 204.002 30.1904 204.007 30.554C204.03 31.9724 204.016 33.3862 204.016 34.8046C204.016 36.2594 204.025 37.7096 204.007 39.1643C204.002 39.4962 204.089 39.6098 204.434 39.5962C205.07 39.5689 205.706 39.578 206.338 39.5962C206.624 39.6053 206.71 39.5053 206.71 39.2234C206.701 36.3003 206.701 33.3772 206.71 30.4495C206.71 30.1858 206.628 30.104 206.369 30.1085Z" fill="#832E09"/>
<path d="M205.379 26.2762C204.493 26.2717 203.816 26.9217 203.798 27.7946C203.78 28.672 204.443 29.3539 205.315 29.3675C206.238 29.3812 206.924 28.7265 206.924 27.831C206.924 26.9536 206.26 26.2853 205.379 26.2762Z" fill="#832E09"/>
<path d="M265.751 27.2718C265.133 27.29 264.515 27.2991 263.897 27.2672C263.52 27.2491 263.406 27.3491 263.411 27.74C263.429 29.8494 263.42 31.9588 263.42 34.0682C263.42 34.3864 263.42 34.7001 263.42 35.132C263.261 34.9365 263.179 34.8456 263.107 34.7455C261.63 32.8089 260.158 30.8723 258.682 28.9357C258.264 28.3901 257.937 27.6355 257.378 27.3673C256.801 27.0899 255.992 27.2854 255.288 27.2718C255.252 27.2718 255.215 27.2763 255.179 27.2718C254.875 27.2263 254.82 27.3854 254.82 27.6537C254.825 31.5087 254.829 35.3638 254.82 39.2143C254.82 39.5007 254.916 39.5962 255.197 39.5871C255.851 39.5735 256.506 39.5644 257.16 39.5871C257.51 39.6008 257.591 39.4598 257.582 39.1416C257.564 38.2324 257.578 37.3232 257.578 36.414C257.578 34.9683 257.578 33.5181 257.578 32.0679C257.805 32.0725 257.841 32.2407 257.923 32.3452C259.663 34.6273 261.394 36.914 263.129 39.2052C263.284 39.4098 263.416 39.6008 263.729 39.5917C264.42 39.5689 265.11 39.5735 265.801 39.5917C266.096 39.6008 266.169 39.4871 266.169 39.2098C266.164 35.3547 266.159 31.4996 266.173 27.6491C266.169 27.3173 266.037 27.2627 265.751 27.2718Z" fill="#F48220"/>
<path d="M301.531 30.1086C300.986 30.1313 300.436 30.1631 299.9 30.0995C299.323 30.0313 299.123 30.2813 298.973 30.7859C298.483 32.4134 297.942 34.0318 297.397 35.7412C297.315 35.5184 297.261 35.3866 297.22 35.2547C296.711 33.6863 296.193 32.1179 295.707 30.545C295.602 30.204 295.448 30.0904 295.098 30.1086C294.553 30.1404 294.008 30.1449 293.463 30.1086C293.077 30.0813 292.94 30.2313 292.831 30.5813C292.304 32.277 291.745 33.9636 291.173 35.723C291.096 35.5229 291.041 35.3911 290.996 35.2593C290.487 33.6909 289.969 32.1225 289.479 30.545C289.374 30.2131 289.229 30.0858 288.874 30.1086C288.256 30.1404 287.639 30.1358 287.021 30.1131C286.653 30.0995 286.598 30.1904 286.721 30.5404C287.72 33.4363 288.702 36.3412 289.674 39.2462C289.769 39.5326 289.91 39.6053 290.183 39.5962C290.837 39.5826 291.491 39.578 292.145 39.5962C292.459 39.6053 292.595 39.4962 292.677 39.2007C292.827 38.6779 293.017 38.1688 293.195 37.6551C293.54 36.6504 293.881 35.6502 294.226 34.6455C294.403 34.6956 294.38 34.8047 294.408 34.8819C294.894 36.3094 295.389 37.7278 295.848 39.1643C295.957 39.5099 296.12 39.6144 296.466 39.6008C297.083 39.5735 297.701 39.578 298.319 39.6008C298.633 39.6099 298.81 39.5371 298.91 39.2007C299.132 38.437 299.409 37.6869 299.664 36.9277C300.386 34.8001 301.099 32.668 301.835 30.545C301.958 30.1904 301.899 30.0904 301.531 30.1086Z" fill="#F48220"/>
<path d="M330.761 38.9961C329.725 37.4368 328.698 35.8775 327.653 34.3273C327.458 34.0409 327.449 33.8591 327.703 33.5954C328.616 32.6634 329.507 31.7042 330.402 30.7495C330.579 30.5632 330.742 30.3631 330.979 30.0949C329.875 30.0949 328.898 30.104 327.921 30.0904C327.667 30.0858 327.535 30.2176 327.381 30.3859C326.549 31.2814 325.704 32.1679 324.746 33.1817C324.746 32.8089 324.746 32.5952 324.746 32.3816C324.746 30.8359 324.746 29.2903 324.746 27.7491C324.746 26.5308 324.746 26.5217 323.524 26.5353C323.06 26.5399 322.461 26.3308 322.165 26.6353C321.893 26.9127 322.088 27.4991 322.088 27.9492C322.083 31.6542 322.088 35.3638 322.074 39.0689C322.074 39.4553 322.133 39.628 322.57 39.5962C323.165 39.5553 323.769 39.5735 324.369 39.5917C324.65 39.6008 324.755 39.4962 324.746 39.2143C324.732 38.687 324.782 38.1551 324.732 37.6369C324.673 37.0504 324.891 36.6413 325.314 36.2639C325.55 36.0503 325.636 36.0275 325.818 36.3094C326.454 37.305 327.117 38.2779 327.767 39.2643C327.889 39.4507 328.003 39.6053 328.271 39.5962C329.193 39.578 330.115 39.5917 331.142 39.5917C330.97 39.328 330.87 39.1598 330.761 38.9961Z" fill="#F48220"/>
<path d="M275.209 30.2995C274.237 29.9176 273.219 29.8449 272.211 30.0676C269.072 30.7677 267.795 33.6909 268.74 36.6185C269.83 40.0054 274.428 40.6691 276.981 38.3961C277.172 38.2279 277.135 38.1233 276.976 37.9596C276.636 37.6096 276.295 37.255 275.986 36.8731C275.768 36.6049 275.618 36.6276 275.377 36.8458C274.95 37.2368 274.414 37.4096 273.846 37.4959C272.542 37.6914 271.307 36.9277 271.134 35.7866C271.316 35.7866 271.498 35.7866 271.675 35.7866C273.274 35.7866 274.868 35.7912 276.468 35.7821C276.935 35.7775 277.549 35.9866 277.83 35.7002C278.135 35.3911 277.926 34.7683 277.926 34.2864C277.935 32.3861 276.981 30.995 275.209 30.2995ZM274.832 33.8954C274.273 33.8636 273.71 33.8864 273.151 33.8864C272.592 33.8864 272.029 33.8818 271.47 33.8864C271.243 33.8909 271.143 33.85 271.216 33.5772C271.411 32.8498 272.274 32.2088 273.156 32.1679C274.142 32.1225 274.891 32.5907 275.159 33.409C275.268 33.7318 275.268 33.9182 274.832 33.8954Z" fill="#F48220"/>
<path d="M307.8 29.9585C304.92 29.954 302.776 32.0452 302.78 34.8546C302.785 37.6368 304.92 39.7144 307.773 39.7144C310.635 39.7189 312.784 37.6459 312.793 34.8774C312.802 32.0633 310.672 29.9631 307.8 29.9585ZM307.491 37.4232C306.36 37.3141 305.561 36.3503 305.461 34.9728C305.334 33.2317 306.678 31.9588 308.3 32.2816C309.395 32.4998 310.108 33.5272 310.104 34.8592C310.095 36.514 309.018 37.5732 307.491 37.4232Z" fill="#F48220"/>
<path d="M285.354 37.0868C285.226 36.8231 285.14 36.714 284.877 36.9822C284.527 37.3323 284.091 37.5278 283.591 37.3186C283.05 37.0959 282.959 36.6094 282.955 36.1003C282.95 34.9001 282.968 33.7 282.946 32.4998C282.937 32.1134 283.059 31.9633 283.436 32.0134C283.564 32.0315 283.691 32.0179 283.818 32.0179C285.29 32.0179 285.285 32.0179 285.249 30.5177C285.245 30.2177 285.176 30.0949 284.858 30.1131C284.404 30.1358 283.95 30.0949 283.495 30.1267C283.082 30.1586 282.914 30.054 282.941 29.5994C282.982 28.9675 282.941 28.3265 282.959 27.69C282.968 27.3991 282.905 27.2627 282.578 27.2763C281.942 27.2991 281.306 27.2945 280.67 27.2763C280.384 27.2673 280.293 27.3627 280.302 27.6491C280.32 28.3583 280.302 29.0675 280.311 29.7767C280.311 29.9813 280.293 30.1176 280.029 30.1267C279.766 30.1358 279.411 29.9813 279.266 30.2222C279.143 30.4268 279.23 30.7541 279.221 31.0269C279.216 31.1541 279.239 31.286 279.216 31.4087C279.13 31.9133 279.343 32.1043 279.838 32.0225C280.229 31.9588 280.334 32.1452 280.32 32.518C280.293 33.2272 280.311 33.9363 280.311 34.6455C280.311 34.9365 280.306 35.2274 280.311 35.5184C280.324 36.2776 280.243 37.0459 280.538 37.7778C281.319 39.7553 284.013 40.4963 285.971 38.7643C286.13 38.6234 286.126 38.5142 286.03 38.346C285.785 37.9233 285.558 37.5096 285.354 37.0868Z" fill="#F48220"/>
<path d="M320.271 30.6268C320.271 29.9131 320.225 29.8767 319.535 30.0449C318.758 30.2358 318.131 30.6904 317.472 31.2496C317.459 30.9814 317.422 30.7859 317.441 30.595C317.481 30.2177 317.354 30.0858 316.964 30.104C316.364 30.1358 315.764 30.1222 315.165 30.1085C314.892 30.0995 314.783 30.1722 314.783 30.4722C314.792 33.3954 314.792 36.323 314.783 39.2462C314.783 39.5053 314.874 39.5962 315.133 39.5917C315.732 39.578 316.332 39.5598 316.932 39.5962C317.354 39.6235 317.445 39.4644 317.445 39.0689C317.445 37.6914 317.377 36.3094 317.486 34.9274C317.618 33.3044 318.317 32.5862 319.926 32.4498C320.18 32.427 320.28 32.3498 320.271 32.0952C320.262 31.6088 320.271 31.1178 320.271 30.6268Z" fill="#F48220"/>
<path d="M157.873 36.6731C155.96 31.6497 149.373 30.4404 145.911 34.4773C145.484 34.9728 145.171 35.5457 144.789 36.0912C144.735 35.0047 144.717 33.9318 144.748 32.8635C144.757 32.4634 144.621 32.3952 144.258 32.3861C143.867 32.377 143.785 32.5043 143.785 32.8771C143.799 38.9825 143.794 45.0924 143.785 51.1978C143.785 51.5479 143.831 51.707 144.244 51.7115C144.68 51.7161 144.744 51.5524 144.744 51.1705C144.73 48.7884 144.735 46.4062 144.739 44.0286C144.739 43.8332 144.694 43.6286 144.826 43.3785C144.903 43.5195 144.948 43.5922 144.989 43.674C147.133 47.6882 152.367 48.6702 155.824 45.7016C158.268 43.6104 159.109 39.9144 157.873 36.6731ZM155.433 44.7924C154.348 45.8925 152.808 46.479 151.145 46.479C147.274 46.5108 144.217 43.0149 144.744 38.8825C145.098 36.1276 146.561 34.1409 149.25 33.2953C152.839 32.1634 156.428 34.3091 157.21 38.0005C157.746 40.5372 157.328 42.8739 155.433 44.7924Z" fill="#832E09"/>
<path d="M74.8819 37.7505C74.8501 34.5728 73.1646 32.6907 70.0527 32.2679C67.9766 31.9861 66.014 32.377 64.115 33.2181C63.7834 33.3635 63.5699 33.4499 63.7652 33.9091C63.9651 34.3773 64.1786 34.1955 64.4603 34.0682C66.1957 33.2772 67.9947 32.9044 69.9073 33.159C71.9517 33.4317 73.3055 34.591 73.7734 36.5276C73.9642 37.3141 73.946 38.1096 73.9097 38.9416C72.4105 38.4915 70.9022 38.2096 69.3531 38.1687C67.704 38.1233 66.0821 38.2506 64.5966 39.0552C62.9066 39.969 62.107 41.3964 62.266 43.3149C62.4069 45.0242 63.3927 46.1289 64.9055 46.8245C67.2951 47.9155 71.7382 47.7291 73.9233 44.1559C73.9233 45.056 73.946 45.8152 73.9142 46.5744C73.8961 46.9608 74.0142 47.0654 74.3958 47.0518C74.7456 47.0427 74.9001 46.9927 74.9001 46.5835C74.8773 43.6422 74.9092 40.6964 74.8819 37.7505ZM73.9506 40.3327C73.9052 40.7282 73.9324 41.1328 73.9415 41.5283C73.9733 42.6603 73.5644 43.624 72.833 44.4605C71.1249 46.4108 67.6631 47.1063 65.3235 45.9789C63.9969 45.3379 63.2473 44.3105 63.2564 42.8057C63.2655 41.3146 64.0605 40.3281 65.3553 39.7099C66.4774 39.178 67.6767 39.0325 68.9033 39.0552C70.4525 39.0734 71.9698 39.2871 73.4599 39.7099C73.8097 39.8099 73.996 39.9326 73.9506 40.3327Z" fill="#832E09"/>
<path d="M187.207 58.4589C187.207 57.2223 187.207 57.2405 185.967 57.2178C185.531 57.2087 185.426 57.3405 185.431 57.7633C185.458 59.209 185.44 60.6546 185.44 62.1184C185.208 62.0639 185.154 61.8957 185.058 61.7729C184.131 60.5637 183.159 59.3817 182.305 58.1179C181.815 57.3951 181.265 57.1178 180.42 57.2087C180.02 57.2496 179.902 57.3269 179.906 57.736C179.929 59.7363 179.916 61.7366 179.916 63.7369C179.916 65.1734 179.916 65.1643 181.342 65.1279C181.656 65.1189 181.742 65.0279 181.737 64.7233C181.724 63.4323 181.728 62.1412 181.737 60.8501C181.737 60.7046 181.656 60.5319 181.828 60.3909C182.778 61.6411 183.777 62.8458 184.649 64.1369C185.176 64.9234 185.771 65.2507 186.703 65.1416C187.093 65.0961 187.221 65.0416 187.212 64.6279C187.193 62.5685 187.207 60.5137 187.207 58.4589Z" fill="#832E09"/>
<path d="M201.667 57.5169C201.59 57.335 201.495 57.2168 201.272 57.2259C200.872 57.2396 200.473 57.235 200.073 57.2259C199.882 57.2214 199.791 57.3123 199.714 57.485C198.664 59.9308 197.61 62.3721 196.547 64.8133C196.429 65.0815 196.525 65.1043 196.761 65.1179C198.269 65.2134 198.269 65.2179 198.878 63.8132C198.892 63.7814 198.91 63.745 198.919 63.7132C198.987 63.4586 199.155 63.3949 199.405 63.3995C200.259 63.4131 201.113 63.4177 201.963 63.3995C202.222 63.3949 202.367 63.4859 202.449 63.7223C202.512 63.9086 202.621 64.0859 202.676 64.2769C202.858 64.9361 203.198 65.3361 203.83 65.1179C204.148 65.1179 204.348 65.1043 204.548 65.1224C204.879 65.1452 204.906 65.0406 204.779 64.7497C203.739 62.3403 202.703 59.9263 201.667 57.5169ZM199.732 61.8447C200.045 61.1174 200.341 60.4309 200.681 59.6399C201.013 60.4082 201.313 61.0946 201.636 61.8447C200.963 61.8447 200.373 61.8447 199.732 61.8447Z" fill="#832E09"/>
<path d="M212.707 63.0767C212.67 62.904 212.702 62.713 212.702 62.5312C212.702 61.0583 212.702 61.0719 211.285 61.0855C210.921 61.0901 210.867 61.2219 210.88 61.5311C210.903 62.0038 210.876 62.4766 210.89 62.9494C210.899 63.1813 210.817 63.304 210.594 63.395C209.527 63.8405 208.327 63.5722 207.682 62.7176C207.019 61.8402 207.033 60.4173 207.714 59.5626C208.386 58.717 209.599 58.4715 210.631 58.9125C210.958 59.0534 211.189 59.5762 211.562 59.3535C211.862 59.1762 211.989 58.7352 212.234 58.4443C212.443 58.1942 212.321 58.0897 212.13 57.9351C210.812 56.8713 208.709 56.7486 207.273 57.6532C205.756 58.6079 205.043 60.3718 205.474 62.1448C206.247 65.3316 209.781 65.7998 211.857 64.5951C212.448 64.2587 212.857 63.8314 212.707 63.0767Z" fill="#832E09"/>
<path d="M195.98 62.5448C195.98 61.0446 195.98 61.0583 194.58 61.0901C194.258 61.0992 194.185 61.2083 194.199 61.4992C194.221 61.972 194.194 62.4448 194.208 62.9176C194.212 63.1404 194.162 63.2767 193.935 63.3768C192.899 63.845 191.677 63.595 191.01 62.763C190.301 61.8766 190.314 60.3945 191.037 59.5217C191.714 58.7034 192.954 58.4715 193.967 58.9398C194.271 59.0807 194.517 59.5308 194.812 59.3898C195.098 59.2535 195.248 58.8352 195.462 58.5397C195.484 58.5125 195.498 58.4761 195.521 58.4488C195.725 58.2351 195.639 58.0988 195.43 57.9351C194.062 56.8622 191.968 56.7486 190.528 57.6851C188.992 58.6852 188.316 60.44 188.793 62.2402C189.542 65.0724 192.618 65.8044 194.898 64.7315C195.643 64.3814 196.175 63.9086 195.989 62.9767C195.957 62.8403 195.98 62.6903 195.98 62.5448Z" fill="#832E09"/>
<path d="M269.371 62.6448C269.185 62.3902 269.203 62.2948 269.485 62.1266C270.398 61.5856 270.802 60.49 270.584 59.2671C270.389 58.1533 269.826 57.5896 268.645 57.3668C267.332 57.1213 266 57.2804 264.678 57.2259C264.288 57.2077 264.192 57.3532 264.197 57.7214C264.211 59.7399 264.206 61.7538 264.206 63.7722C264.206 65.1679 264.206 65.1543 265.614 65.127C265.969 65.1224 266.041 64.9906 266.028 64.6769C266.01 64.1132 266.019 63.5495 266.028 62.9858C266.028 62.8403 265.96 62.663 266.209 62.6039C266.75 62.4766 267.213 62.6403 267.545 63.1131C267.65 63.2631 267.777 63.3995 267.85 63.5631C268.467 64.9497 269.503 65.477 271.052 65.0088C270.498 64.2268 269.944 63.4267 269.371 62.6448ZM267.772 61.031C267.577 61.0628 267.377 61.0764 267.177 61.081C266.019 61.0991 266.019 61.0991 266.019 59.9308C266.019 58.7943 266.019 58.7943 267.136 58.7943C267.3 58.7943 267.463 58.7897 267.627 58.7943C268.422 58.8216 268.744 59.0807 268.781 59.7171C268.826 60.5627 268.576 60.8991 267.772 61.031Z" fill="#01ACD3"/>
<path d="M257.051 57.3623C255.847 57.1305 254.629 57.2805 253.416 57.2259C253.017 57.2077 252.939 57.3578 252.944 57.7215C252.967 58.8671 252.953 60.0081 252.953 61.1537C252.953 62.0448 252.953 62.9313 252.953 63.8223C252.953 65.1952 252.953 65.1861 254.348 65.127C254.634 65.1134 254.729 65.0316 254.72 64.7497C254.702 64.2587 254.725 63.7677 254.711 63.2813C254.702 63.0176 254.798 62.9267 255.057 62.9358C255.656 62.9631 256.251 62.9267 256.846 62.8449C258.318 62.6449 259.145 61.7766 259.186 60.3809C259.236 58.567 258.609 57.6669 257.051 57.3623ZM257.328 60.4627C257.219 60.9674 256.928 61.2583 256.415 61.331C256.36 61.3401 256.306 61.3447 256.251 61.3492C254.711 61.5538 254.711 61.5538 254.711 60.0491C254.711 58.7352 254.711 58.7352 256.047 58.7943C257.101 58.8398 257.551 59.4308 257.328 60.4627Z" fill="#01ACD3"/>
<path d="M262.33 61.1764C262.33 60.2854 262.33 59.3989 262.33 58.5079C262.33 57.2077 262.33 57.2259 261.017 57.2259C260.631 57.2259 260.526 57.3441 260.531 57.7214C260.549 59.7353 260.54 61.7538 260.54 63.7677C260.54 65.177 260.54 65.1679 261.948 65.127C262.266 65.1179 262.339 65.0133 262.339 64.7133C262.321 63.5358 262.33 62.3539 262.33 61.1764Z" fill="#01ACD3"/>
</g>
<defs>
<clipPath id="clip0">
<rect width="331.919" height="66.5637" fill="white" transform="translate(0 0.436279)"/>
</clipPath>
</defs>
</svg>
