<svg width="81" height="81" viewBox="0 0 81 81" fill="none" xmlns="http://www.w3.org/2000/svg">
<circle cx="40.5" cy="40.5" r="40.5" fill="white"/>
<path d="M59.0183 33.9526C59.5471 33.3701 59.8198 32.5727 59.7537 31.829C59.6338 30.4904 58.5679 29.313 57.1591 28.9618C56.8534 28.8874 56.5352 28.8502 56.213 28.8502C55.5974 28.8502 54.9612 28.9907 54.3538 29.251C53.8911 28.3379 52.8995 27.681 51.8088 27.681C51.532 27.681 51.2635 27.7265 51.0073 27.8132C50.2389 28.0777 49.6233 28.7387 49.3506 29.5815C49.173 30.1393 49.1647 30.7218 49.3176 31.2424C48.3343 31.891 47.6898 33.023 47.6774 34.2129C47.665 35.663 48.5987 37.0471 49.9455 37.5759C50.3463 37.7329 50.776 37.8155 51.2222 37.8155C51.7882 37.8155 52.3542 37.6792 52.8541 37.4354C53.2425 38.4642 54.139 39.2905 55.238 39.5218C55.4445 39.5673 55.6552 39.5879 55.8701 39.5879C57.2293 39.5879 58.5101 38.7203 58.9811 37.4809C59.3777 36.4397 59.1752 35.254 58.5349 34.374C58.7125 34.2542 58.8737 34.1137 59.0183 33.9526ZM58.3159 37.2247C57.8862 38.3526 56.5766 39.0715 55.395 38.8195C54.2134 38.5675 53.3044 37.3817 53.3747 36.1753C52.5979 37.0223 51.2841 37.328 50.2141 36.9066C49.144 36.4852 48.3921 35.3697 48.4004 34.217C48.4086 33.0685 49.1854 31.9654 50.2595 31.5605C49.5365 30.5441 50.0654 28.8957 51.2428 28.4867C52.4203 28.0818 53.8539 29.0527 53.9118 30.3004C54.8083 29.7013 55.9403 29.3915 56.9856 29.6517C58.0308 29.912 58.9398 30.8086 59.0389 31.8827C59.1339 32.9569 58.2622 34.0765 57.1839 34.0889C58.2374 34.6921 58.7414 36.0968 58.3159 37.2247Z" fill="#F6462E"/>
<path d="M28.9162 54.1844C29.4285 54.2918 29.9821 54.1885 30.3911 53.8993C31.1224 53.3829 31.4488 52.3707 31.1761 51.4411C31.1183 51.2387 31.0315 51.0445 30.9241 50.8586C30.7175 50.5033 30.4242 50.181 30.0689 49.9207C30.4407 49.3465 30.4862 48.5573 30.1226 47.9294C30.0317 47.7682 29.9119 47.6278 29.7756 47.5121C29.3665 47.1568 28.7757 47.0204 28.2015 47.1485C27.8214 47.2311 27.4826 47.4212 27.2306 47.6856C26.5282 47.3344 25.6565 47.3427 24.9665 47.7352C24.1237 48.2144 23.6403 49.2142 23.7849 50.1686C23.8262 50.4537 23.9254 50.7264 24.0741 50.9825C24.2642 51.3089 24.5286 51.5898 24.8384 51.7964C24.3757 52.3624 24.1981 53.1598 24.4294 53.8704C24.4749 54.0026 24.5327 54.1348 24.6029 54.2588C25.0574 55.0438 25.987 55.4941 26.8587 55.3495C27.5941 55.2297 28.2097 54.7132 28.5031 54.0522C28.6394 54.11 28.7757 54.1514 28.9162 54.1844ZM26.7926 54.8744C25.9994 55.0066 25.1442 54.486 24.8963 53.7217C24.6484 52.9574 25.0285 52.036 25.7474 51.6725C24.9996 51.5072 24.384 50.8503 24.2683 50.0942C24.1526 49.3382 24.5451 48.5284 25.2144 48.1483C25.8796 47.7682 26.7761 47.8467 27.371 48.3342C27.7139 47.5782 28.846 47.3303 29.474 47.8757C30.1019 48.421 30.0193 49.5737 29.3211 50.024C29.9656 50.3421 30.5234 50.8916 30.7258 51.5816C30.9282 52.2715 30.7134 53.0978 30.1226 53.511C29.5359 53.9241 28.5981 53.796 28.2304 53.1805C28.2263 53.9778 27.5859 54.7422 26.7926 54.8744Z" fill="#74A42E"/>
<path d="M41.9262 54.2505C39.6126 54.2505 37.3403 53.5193 35.5348 52.1931C32.1346 49.6977 29.9821 45.3018 29.6309 40.1374C29.4368 37.3156 29.7507 34.5682 30.5605 31.9695C31.3207 29.532 32.5064 28.0364 34.0888 27.5117C34.4937 27.3795 34.9151 27.3134 35.3448 27.3134C37.2204 27.3134 39.0259 28.5735 40.5463 29.8088C43.7069 32.3744 47.2847 35.283 49.3174 39.2037C51.1642 42.7775 51.6765 48.1897 48.425 51.6353C46.8344 53.3251 44.5249 54.2505 41.9262 54.2505Z" fill="#545D1C"/>
<path d="M30.0482 40.1085C29.8623 37.4106 30.1557 34.6756 30.9613 32.0976C31.5066 30.3458 32.4734 28.4908 34.2169 27.9165C36.3529 27.2142 38.5301 28.7222 40.2736 30.1392C43.5788 32.8247 46.979 35.6176 48.9332 39.402C50.8915 43.1864 51.032 48.2516 48.1069 51.3502C45.0207 54.6224 39.4019 54.5149 35.7745 51.8543C32.1553 49.1936 30.3581 44.5953 30.0482 40.1085Z" fill="#BDDA6E"/>
<path d="M47.4965 46.285C48.3535 42.7973 46.2208 39.2753 42.7331 38.4184C39.2455 37.5615 35.7235 39.6941 34.8665 43.1818C34.0096 46.6695 36.1423 50.1915 39.6299 51.0484C43.1176 51.9054 46.6396 49.7727 47.4965 46.285Z" fill="#4C2601"/>
<path d="M44.6406 40.749C43.6697 40.059 42.4427 39.6665 41.2652 39.9764C41.0338 40.0383 41.0875 40.3813 41.3189 40.3854C42.3972 40.4102 43.302 40.6994 44.1076 41.4389C44.4919 41.7901 44.7439 42.2487 44.9711 42.7073C45.1818 43.1245 45.1529 43.3807 45.5289 43.6699C45.69 43.7938 45.9544 43.6988 46.0453 43.5336C46.5865 42.5751 45.3719 41.2654 44.6406 40.749Z" fill="white"/>
<path d="M41.885 32.7793C40.4101 30.9408 38.0014 29.6146 35.6837 29.2552C35.6299 29.2469 35.6052 29.3213 35.6589 29.3378C38.0634 30.1186 39.8606 31.2465 41.6908 32.9694C41.823 33.0974 41.9924 32.9156 41.885 32.7793Z" fill="white"/>
<path d="M43.0333 33.8287C42.5293 33.8287 42.5293 34.6096 43.0333 34.6096C43.5373 34.6137 43.5373 33.8287 43.0333 33.8287Z" fill="white"/>
<path d="M25.8136 43.0377C25.8136 43.0377 25.1608 43.1038 24.4667 43.0708C24.0246 43.0501 23.566 42.9881 23.252 42.8477C20.1989 41.476 18.6578 37.4685 19.9964 34.4071C21.3392 31.3415 25.3343 29.7633 28.4081 31.0812C28.404 31.1349 28.3999 31.1845 28.3916 31.2424C28.0528 34.1592 25.8136 43.0377 25.8136 43.0377Z" fill="#D6301A"/>
<path d="M25.8135 43.0378C25.8135 43.0378 25.1608 43.1039 24.4667 43.0708C21.9052 41.4306 20.707 37.828 21.9424 35.0186C23.0124 32.5769 25.764 31.0813 28.3916 31.2424C28.0528 34.1592 25.8135 43.0378 25.8135 43.0378Z" fill="#F6462E"/>
<path d="M26.5158 32.6801C26.9992 33.0023 26.962 33.7129 26.8712 34.2872C26.5778 36.0885 26.2886 37.894 25.9953 39.6953C25.9168 40.1704 25.797 40.7116 25.3714 40.943C24.9459 41.1702 24.3881 40.9513 24.0907 40.5712C23.7932 40.1911 23.6982 39.6953 23.6279 39.216C23.3346 37.1255 23.4916 34.7995 24.8798 33.213C25.2929 32.7379 25.9953 32.3371 26.5158 32.6801Z" fill="#D6301A"/>
<path d="M25.2229 38.0428C25.0659 37.8197 24.7312 37.5842 24.4503 37.609C24.3263 37.6214 24.3057 37.766 24.3594 37.8486C24.504 38.08 24.9089 38.1915 25.1692 38.1833C25.2394 38.1791 25.2559 38.0882 25.2229 38.0428Z" fill="#DBDE1B"/>
<path d="M25.6482 36.7744C25.4416 36.5967 25.297 36.4108 25.012 36.3612C24.8839 36.3406 24.8137 36.4976 24.888 36.5885C25.0616 36.8116 25.3094 36.8487 25.5573 36.9479C25.6606 36.9892 25.7308 36.8446 25.6482 36.7744Z" fill="#DBDE1B"/>
<path d="M26.0407 35.6795C25.9209 35.4606 25.8011 35.2168 25.5615 35.1177C25.4334 35.064 25.3384 35.2003 25.3756 35.3118C25.4499 35.5432 25.6854 35.6795 25.8796 35.8076C25.9622 35.8655 26.0945 35.7787 26.0407 35.6795Z" fill="#DBDE1B"/>
<path d="M26.6357 34.3286C26.5035 34.0642 26.4085 33.7254 26.1358 33.5766C26.0243 33.5147 25.9003 33.6428 25.921 33.7502C25.9706 34.0394 26.2598 34.2418 26.4539 34.4401C26.5324 34.5269 26.6936 34.4443 26.6357 34.3286Z" fill="#DBDE1B"/>
<path d="M24.8591 39.4887C25.0161 39.402 25.1813 39.3028 25.3218 39.1913C25.4747 39.0714 25.3177 38.8731 25.1565 38.9227C24.9954 38.9723 24.8426 39.0467 24.6897 39.1128C24.5534 39.1747 24.4212 39.2243 24.3427 39.3565C24.2848 39.4557 24.3261 39.6044 24.4583 39.6168C24.6195 39.6333 24.7186 39.5631 24.8591 39.4887Z" fill="#DBDE1B"/>
<path d="M58.9686 43.2609C57.6093 42.918 56.1674 43.075 54.7958 42.7899C54.3661 42.699 53.9323 42.5461 53.5398 42.3313C53.0151 41.286 52.4574 40.1581 51.6517 39.3401C51.5898 39.274 51.4865 39.3401 51.5071 39.4269C51.7013 40.2738 52.1393 41.0588 52.5689 41.8231C53.263 44.4053 52.887 47.2808 51.4782 49.5614C50.9039 50.4951 50.1314 51.5197 50.4412 52.5732C50.7304 53.5689 51.9533 54.0688 52.9655 53.8416C53.9778 53.6143 54.7834 52.8459 55.3907 52.0072C55.023 52.9079 55.6717 54.0234 56.6054 54.3002C57.5391 54.577 58.5926 54.106 59.1669 53.321C59.7412 52.536 59.8899 51.4949 59.7453 50.5323C59.6007 49.5696 59.1958 48.6648 58.7496 47.7972C59.9188 48.3137 61.464 47.3965 61.5714 46.1199C61.683 44.7234 60.3278 43.6038 58.9686 43.2609Z" fill="#096B54"/>
<path d="M59.828 46.0372C58.4563 45.9918 57.064 45.9422 55.6924 46.0001C55.6882 46.0001 55.6841 46.0042 55.6758 46.0042C55.2999 45.4423 54.8702 44.9259 54.3992 44.4797C54.3414 44.426 54.2629 44.5045 54.3125 44.5664C54.6471 44.9755 54.9487 45.3845 55.2131 45.8018C55.2586 47.5865 54.8454 48.9665 53.5936 50.3133C53.5647 50.3422 53.6018 50.3959 53.639 50.3712C54.8702 49.5159 55.6676 47.8675 55.5395 46.3388C56.5311 48.0865 56.9566 49.9456 56.9607 52.1353C56.9607 52.3667 57.2871 52.3543 57.3119 52.1353C57.5143 50.1894 56.9442 48.0575 55.8783 46.3223C57.1921 46.3265 58.5183 46.2397 59.828 46.1571C59.9023 46.1447 59.9023 46.0372 59.828 46.0372Z" fill="white"/>
<path d="M30.4698 58.0184C30.1682 56.8327 30.0484 55.8535 30.1021 55.081C30.1021 54.9942 30.1352 54.9033 30.1972 54.8C30.2633 54.6967 30.3252 54.6472 30.3913 54.6472C30.978 54.4447 31.5936 54.3414 32.2381 54.3414C33.2007 54.3414 34.1014 54.5645 34.936 55.0149C35.0847 55.0892 35.1591 55.1843 35.1591 55.3041C35.1591 55.5065 34.9649 55.7255 34.5806 55.961C34.4195 56.0353 34.2501 56.0725 34.0683 56.0725C33.8535 56.0725 33.4899 55.9651 32.9776 55.7503C32.519 55.5561 32.1431 55.4817 31.8539 55.5272C31.8208 55.7503 31.8043 55.9858 31.8043 56.2336C31.8043 56.7046 31.8787 57.2748 32.0274 57.9523C32.1679 58.5101 32.3042 59.072 32.4447 59.638C32.5934 59.6504 32.8496 59.6338 33.2131 59.5884C33.6304 59.5471 33.9196 59.5223 34.0807 59.5223C34.7335 59.5223 35.0475 59.7454 35.0268 60.1957C35.0145 60.4849 34.6881 60.6502 34.0477 60.6915C33.3536 60.7328 32.9652 60.832 32.8909 60.989C32.8165 61.146 32.7793 61.3071 32.7793 61.4765C32.7793 61.7326 32.8867 62.0921 33.1016 62.5507C33.3577 63.1167 33.5065 63.4885 33.5519 63.6579C33.585 63.7447 33.6015 63.8273 33.6015 63.914C33.6015 64.1165 33.5147 64.2817 33.3371 64.4098C33.1594 64.5379 32.9652 64.604 32.7504 64.604C32.5686 64.604 32.4199 64.5544 32.3001 64.4594C31.9985 64.1619 31.7712 63.6125 31.6101 62.8151C31.449 62.0177 31.2424 61.4682 30.9863 61.1708C30.9656 61.1294 30.9284 61.1046 30.8747 61.1046C30.8541 61.1046 30.7632 61.1212 30.6103 61.1542C30.4533 61.1873 30.3335 61.1914 30.2509 61.1708C29.9493 61.0964 29.8005 60.9477 29.8005 60.7204C29.8005 60.6461 29.8295 60.5717 29.8873 60.4973C29.9451 60.423 30.1104 60.3031 30.3789 60.1461C30.602 60.0057 30.7301 59.8859 30.7549 59.7784C30.7797 59.671 30.7962 59.5595 30.7962 59.4397C30.7962 59.2455 30.759 59.0059 30.6847 58.7167C30.6062 58.4894 30.5359 58.2539 30.4698 58.0184Z" fill="#5B164C"/>
<path d="M39.0096 57.0558C39.7491 57.0558 40.3936 57.4152 40.9513 58.13C41.4099 58.729 41.6413 59.4066 41.6413 60.1668C41.6413 60.7535 41.5008 61.3153 41.224 61.8442C40.9472 62.373 40.5589 62.8027 40.0672 63.1373C39.5012 63.5133 38.9187 63.6992 38.3196 63.6992C37.7618 63.6992 37.2661 63.5381 36.8281 63.2158C35.9399 62.5754 35.4978 61.7615 35.4978 60.7782C35.4978 59.923 35.8738 59.0885 36.6298 58.2746C37.3817 57.4607 38.175 57.0558 39.0096 57.0558ZM37.2578 61.0344C37.4602 61.9764 37.8527 62.4474 38.4311 62.4474C38.5592 62.4474 38.6997 62.4143 38.8484 62.3523C39.6623 61.9764 40.0672 61.2823 40.0672 60.2659C40.0672 60.0181 40.0424 59.7784 39.9887 59.5429C39.8606 59.0513 39.431 58.8034 38.7038 58.8034C38.5964 58.8034 38.4972 58.8158 38.3981 58.8365C38.1502 58.8902 37.8858 59.2042 37.6048 59.7743C37.3198 60.3486 37.2041 60.7658 37.2578 61.0344Z" fill="#5B164C"/>
<path d="M45.4917 57.0558C46.2313 57.0558 46.8758 57.4152 47.4335 58.13C47.8921 58.729 48.1235 59.4066 48.1235 60.1668C48.1235 60.7535 47.983 61.3153 47.7062 61.8442C47.4294 62.373 47.041 62.8027 46.5494 63.1373C45.9834 63.5133 45.4008 63.6992 44.8018 63.6992C44.244 63.6992 43.7483 63.5381 43.3103 63.2158C42.422 62.5754 41.98 61.7615 41.98 60.7782C41.98 59.923 42.3559 59.0885 43.112 58.2746C43.8639 57.4607 44.6572 57.0558 45.4917 57.0558ZM43.7441 61.0344C43.9466 61.9764 44.3391 62.4474 44.9175 62.4474C45.0455 62.4474 45.186 62.4143 45.3347 62.3523C46.1486 61.9764 46.5535 61.2823 46.5535 60.2659C46.5535 60.0181 46.5287 59.7784 46.475 59.5429C46.3469 59.0513 45.9173 58.8034 45.1901 58.8034C45.0827 58.8034 44.9836 58.8158 44.8844 58.8365C44.6365 58.8902 44.3721 59.2042 44.0912 59.7743C43.8061 60.3486 43.6904 60.7658 43.7441 61.0344Z" fill="#5B164C"/>
<path d="M49.359 63.7943C49.1772 63.7282 49.012 63.6166 48.8674 63.4472C48.7228 63.282 48.6525 63.1126 48.6525 62.9432C48.6525 62.8895 48.6649 62.8399 48.6856 62.7903C48.7062 62.7408 48.8095 62.6499 48.9913 62.5094C49.14 62.402 49.2227 62.2946 49.2309 62.1872C49.264 60.956 49.1442 59.0885 48.8798 56.5849C48.8798 56.5105 48.8302 56.4072 48.7352 56.2791L48.479 55.9734V55.6346C48.574 55.2587 48.8591 55.0728 49.3301 55.0728C49.4168 55.0728 49.4953 55.0769 49.5697 55.0893C50.3382 55.0893 50.9909 55.2711 51.528 55.6346C52.3213 56.1593 53.003 56.8162 53.5814 57.6095C54.011 58.1961 54.2218 58.8407 54.2218 59.5347C54.2218 60.3362 53.9532 61.1171 53.4202 61.8773C52.9162 62.5962 52.2841 63.1415 51.528 63.5134C51.0033 63.7819 50.5241 63.9141 50.082 63.9141C49.8259 63.9224 49.5862 63.8811 49.359 63.7943ZM50.6604 62.4722C50.7265 62.4764 50.7885 62.4805 50.8546 62.4805C51.3586 62.4805 51.7924 62.1954 52.156 61.6294C52.689 60.8072 52.9575 60.1462 52.9575 59.6546C52.9575 59.4604 52.9245 59.2786 52.8625 59.1092C52.6601 58.5432 52.3502 58.0515 51.9329 57.6343C51.4619 57.1633 50.9372 56.8947 50.3588 56.8328C50.3588 57.3244 50.3919 58.3325 50.4538 59.8487C50.5241 61.5922 50.5943 62.464 50.6604 62.4722Z" fill="#5B164C"/>
<path d="M26.1935 23.6487C26.1357 23.5289 26.0365 23.3471 25.8961 23.1075C25.7556 22.8678 25.6523 22.6819 25.5903 22.5538C25.454 22.2729 25.3961 22.0085 25.4044 21.7647C25.392 21.5416 25.516 21.3681 25.7845 21.24C25.8795 21.1946 25.9787 21.1698 26.0778 21.1698C26.2018 21.1822 26.3257 21.3144 26.4414 21.5582C26.7182 22.3679 26.9083 22.8885 27.0198 23.1199C27.1975 23.4917 27.404 23.8098 27.6395 24.0742C27.718 23.0868 28.0114 22.4712 28.5154 22.2316C28.6559 22.1655 28.8129 22.1283 28.9823 22.12C29.9573 23.3264 30.5935 24.2395 30.8869 24.8551C30.9736 25.0327 31.048 25.2104 31.1141 25.3922C31.1472 25.4872 31.1265 25.5863 31.048 25.6979C30.9695 25.8094 30.8662 25.8962 30.7381 25.954C30.6183 26.0119 30.515 26.0243 30.4283 25.9912C30.106 25.8342 29.8209 25.4954 29.5731 24.9749C29.5524 24.9294 29.5194 24.8592 29.4698 24.7559C29.4202 24.6568 29.3871 24.5783 29.3624 24.5287C29.1434 24.066 28.9038 23.7396 28.6435 23.5413C28.4039 24.2106 28.2882 25.0079 28.2882 25.9293C28.2799 26.0243 28.2179 26.1317 28.1105 26.2474C28.0031 26.3631 27.8957 26.4333 27.7965 26.4498C27.7139 26.4705 27.6313 26.487 27.5486 26.4994C27.4371 26.5159 27.371 26.4994 27.3462 26.4457C27.2016 26.14 27.0074 25.6731 26.7719 25.0492C26.5282 24.4213 26.3381 23.9544 26.1935 23.6487Z" fill="#5B164C"/>
<path d="M30.2424 22.2895C30.0689 21.7565 30.0895 21.2607 30.3002 20.8021C30.5109 20.3435 30.8704 20.0378 31.3744 19.8808C31.9115 19.7156 32.4486 19.7693 32.9857 20.0502C33.5269 20.327 33.874 20.7402 34.0351 21.2855C34.031 21.5293 33.8202 21.8846 33.3947 22.3514C32.87 22.9381 32.5808 23.2769 32.5312 23.3678C32.4156 23.4711 32.3701 23.5578 32.3908 23.6322C32.4279 23.7603 32.5519 23.8429 32.7543 23.8884C32.9568 23.9338 33.1262 23.9338 33.2625 23.8925C33.5228 23.814 33.8574 23.5702 34.2664 23.1653C34.4482 23.2314 34.5722 23.3554 34.63 23.5454C34.6755 23.6942 34.6713 23.847 34.6176 24.004C34.5639 24.161 34.4648 24.2726 34.3202 24.3428C33.8409 24.5783 33.5352 24.7146 33.3988 24.756C33.1303 24.8386 32.8741 24.8675 32.6345 24.8386C31.5727 24.7105 30.7712 23.8636 30.2424 22.2895ZM31.7173 22.496C32.4073 22.2482 32.7585 21.8681 32.7626 21.3558C32.775 21.2814 32.7709 21.2153 32.7502 21.1533C32.7006 20.9881 32.5725 20.8806 32.366 20.8311C32.1594 20.7815 31.9528 20.7897 31.738 20.8559C31.581 20.9054 31.4571 20.9757 31.3662 21.0748C31.1761 21.2649 31.1389 21.5458 31.2546 21.9259C31.3868 22.3432 31.5397 22.5332 31.7173 22.496Z" fill="#5B164C"/>
<path d="M37.964 24.2932C37.8897 24.2601 37.8029 24.1775 37.7079 24.0494C37.6253 23.9461 37.555 23.8965 37.4972 23.9048C37.0551 23.8965 36.6048 23.8924 36.1545 23.8841C35.6546 23.8346 35.2745 23.6528 35.0183 23.3347C34.8613 23.1818 34.7622 22.967 34.7167 22.6819C34.6547 22.2646 34.7002 21.9093 34.8654 21.6077C35.2538 20.8723 35.919 20.4302 36.8651 20.2856C37.2741 20.2237 37.4683 20.2071 37.4559 20.2319C37.5054 20.1245 37.5178 19.9799 37.4889 19.8023C37.4559 19.5916 37.3774 19.48 37.2493 19.4717C37.1212 19.4635 36.9973 19.4676 36.8775 19.4841C36.6668 19.5172 36.4395 19.6039 36.1999 19.7444C35.9603 19.8849 35.7248 20.0212 35.4934 20.1452C35.4562 20.17 35.4191 20.1824 35.386 20.1865C35.2538 20.2071 35.134 20.1286 35.0266 19.9551C34.9398 19.8188 34.882 19.6659 34.8572 19.4924C34.8407 19.385 34.8448 19.3189 34.8654 19.29C35.3488 18.8396 35.9272 18.5628 36.6007 18.4595C37.3113 18.3521 37.8236 18.5298 38.1458 18.9966C38.3193 19.2528 38.4309 19.5461 38.4805 19.8725C38.5218 20.141 38.5259 20.5294 38.497 21.0334C38.4557 21.5912 38.4433 21.9919 38.4557 22.2398C38.5094 22.8554 38.5301 23.281 38.5259 23.5041C38.5053 24.0164 38.3896 24.289 38.1747 24.3221C38.1086 24.3386 38.0384 24.3262 37.964 24.2932ZM37.5096 22.843C37.5178 22.7232 37.5385 22.5125 37.5757 22.2068C37.6129 21.9671 37.6211 21.773 37.6005 21.6284C37.5757 21.459 37.5096 21.2937 37.4104 21.1326C37.0097 21.2855 36.6089 21.4342 36.2164 21.5788C35.7578 21.7895 35.5554 22.1159 35.6132 22.5456C35.6339 22.7356 35.8363 22.8678 36.2247 22.938C36.5593 23.0124 36.8899 23.0248 37.208 22.9752C37.3939 22.9504 37.4931 22.905 37.5096 22.843Z" fill="#5B164C"/>
<path d="M39.4554 19.352C39.4554 19.1041 39.4017 18.7364 39.2985 18.2489C39.1952 17.7613 39.1373 17.4102 39.1291 17.1953C39.1167 16.8896 39.1662 16.6211 39.2737 16.3856C39.3976 16.117 39.6166 15.9765 39.9388 15.9641C40.2693 15.9518 40.4511 16.117 40.4883 16.4641C40.4966 16.5136 40.4924 16.6004 40.4718 16.7243C40.4511 16.8483 40.4429 16.9268 40.4429 16.9598L40.5379 19.604C40.5296 19.8932 40.5503 20.2774 40.5916 20.7525C40.6453 21.3185 40.6742 21.6945 40.6825 21.8763C40.7073 22.5456 40.6247 23.1033 40.4346 23.5578C40.352 23.7685 40.1908 23.8759 39.9512 23.8842C39.7942 23.8883 39.6372 23.8511 39.4844 23.7726C39.3274 23.69 39.2489 23.5371 39.2406 23.3058C39.2365 23.2397 39.2489 23.1736 39.2737 23.1075C39.41 22.591 39.4761 21.9713 39.4761 21.2442C39.4637 20.6121 39.4596 19.9799 39.4554 19.352Z" fill="#5B164C"/>
<path d="M43.6696 18.4306C43.7358 18.1538 43.8349 17.7407 43.9671 17.1912C44.0291 16.8648 44.2563 16.7202 44.6529 16.7533C44.8926 16.7739 45.1074 16.8607 45.3016 17.0094C45.3925 17.1168 45.4007 17.2573 45.3264 17.435C44.9463 18.096 44.7108 18.9182 44.624 19.9056C45.409 19.9014 45.7891 19.8973 45.756 19.8932C46.1816 19.9304 46.384 20.0708 46.3634 20.3063C46.3592 20.3559 46.3468 20.4096 46.3262 20.4633C46.2188 20.7195 45.942 20.8558 45.4958 20.8723C45.3388 20.8847 44.9504 20.8599 44.3348 20.8062C44.31 20.8971 44.2894 21.0293 44.2728 21.2111C44.2398 21.6036 44.2191 22.4258 44.215 23.6776C44.2026 24.8427 44.1778 25.5409 44.1406 25.7681C44.0993 26.0449 43.9423 26.173 43.6738 26.1482C43.4176 26.1276 43.2565 25.9788 43.1904 25.7062C43.1367 25.4955 43.1284 24.6568 43.178 23.1984C43.2276 21.8019 43.1987 20.9798 43.0871 20.7319C42.7277 20.955 42.3848 21.0541 42.0542 21.0252C41.9055 21.0128 41.7774 20.9591 41.67 20.8682C41.5378 20.7649 41.48 20.6451 41.4924 20.5046C41.5089 20.3311 41.6287 20.1865 41.8559 20.0667C41.9675 20.0254 42.2319 19.9758 42.6533 19.9138C42.9797 19.8767 43.2028 19.7982 43.3185 19.6742C43.4383 19.5544 43.5209 19.3602 43.5664 19.0999C43.5953 18.8768 43.6325 18.6537 43.6696 18.4306Z" fill="#5B164C"/>
<path d="M47.1319 20.4551C47.1649 20.327 47.2021 20.1246 47.2476 19.8477C47.293 19.5709 47.3302 19.3644 47.3632 19.228C47.4376 18.9223 47.5574 18.6827 47.7227 18.5009C47.8508 18.3191 48.0615 18.2654 48.3507 18.3398C48.454 18.3645 48.5448 18.41 48.6233 18.472C48.7101 18.5629 48.7225 18.7405 48.6564 19.0049C48.3548 19.8064 48.173 20.3311 48.111 20.579C48.0119 20.9798 47.9664 21.3557 47.983 21.7069C48.6688 20.9963 49.2844 20.7071 49.8297 20.8434C49.9826 20.8806 50.1272 20.9508 50.2635 21.0541C50.2511 22.6076 50.1603 23.7148 49.995 24.38C49.9454 24.57 49.8917 24.7601 49.8297 24.9377C49.7967 25.0327 49.7141 25.0947 49.5818 25.1319C49.4496 25.165 49.3174 25.1691 49.1811 25.1319C49.053 25.0988 48.9663 25.0451 48.9167 24.9625C48.7679 24.6361 48.7638 24.1941 48.9043 23.6322C48.9167 23.5826 48.9373 23.5041 48.9621 23.3967C48.9869 23.2893 49.0076 23.2066 49.0241 23.1488C49.148 22.653 49.1728 22.2481 49.0985 21.93C48.487 22.2977 47.8921 22.8348 47.3054 23.5495C47.2393 23.6156 47.1236 23.6611 46.9666 23.6818C46.8096 23.7024 46.6857 23.69 46.5948 23.6404C46.5204 23.6033 46.4419 23.5661 46.3717 23.5206C46.2767 23.4628 46.2354 23.4049 46.2478 23.3512C46.3304 23.0248 46.4791 22.5415 46.6898 21.9052C46.9005 21.269 47.0493 20.7815 47.1319 20.4551Z" fill="#5B164C"/>
<path d="M51.8623 20.7567C51.9036 20.6121 51.9449 20.4716 51.9863 20.327C52.0565 20.1535 52.1433 20.0419 52.2465 19.9923C52.4449 19.8601 52.6638 19.8436 52.9076 19.9428C53.1348 20.0378 53.2546 20.1907 53.2629 20.4096C53.2753 20.6823 53.1968 21.0211 53.0233 21.4218C52.8002 21.9383 52.6762 22.2647 52.6473 22.4051C52.639 22.463 52.6514 22.5002 52.6845 22.5125C52.7093 22.5208 52.7795 22.496 52.8993 22.4423C53.2216 22.1366 53.5356 21.835 53.8496 21.5334C54.2338 21.2111 54.6015 21.0252 54.9609 20.9756C55.0642 20.9632 55.1799 20.9839 55.308 21.0376C55.622 21.1657 55.7335 21.3392 55.6467 21.5499C55.6219 21.6119 55.5724 21.6739 55.5063 21.7317C54.9609 22.1696 54.4156 22.6034 53.8702 23.0372C53.2422 23.5702 52.7919 24.1114 52.5192 24.6609C52.2094 25.2641 51.726 25.8301 51.0691 26.3631C50.2841 27.0117 49.6148 27.2224 49.0571 26.9952C48.677 26.8382 48.4745 26.6027 48.4497 26.2928C48.4249 25.9789 48.4497 25.7351 48.5241 25.5616C48.6067 25.3633 48.7472 25.2517 48.9414 25.2269C49.0199 25.2145 49.086 25.2187 49.1479 25.2435C49.276 25.2972 49.3752 25.3963 49.4371 25.545C49.5032 25.6896 49.5198 25.8343 49.4867 25.9747C49.9495 25.8425 50.2758 25.6814 50.4659 25.4831C50.6725 25.1773 50.8832 24.8675 51.1021 24.5535C51.1434 24.4915 51.1806 24.4254 51.2095 24.3552C51.2839 24.1734 51.3128 23.8842 51.2963 23.4958C51.2798 23.1033 51.2922 22.8307 51.3418 22.6737C51.4533 22.2523 51.6227 21.6119 51.8623 20.7567Z" fill="#5B164C"/>
<path d="M60.7699 23.4049C59.9353 23.7932 59.3941 24.3551 58.4149 24.4625C57.4606 24.5658 56.6839 24.2394 55.903 23.7313C55.7625 23.6404 55.5684 23.8263 55.6675 23.9668C56.2996 24.8592 57.3573 25.1979 58.4108 25.2517C59.4106 25.3012 60.8732 24.7559 61.1872 23.7313C61.2739 23.4669 60.9847 23.3057 60.7699 23.4049Z" fill="#5B164C"/>
<path d="M58.3737 26.8961C58.2374 26.9043 58.196 27.1026 58.3406 27.144C58.9728 27.3175 59.5512 27.6108 60.0304 28.0611C60.4849 28.4867 60.7204 29.0568 60.9972 29.598C61.1294 29.8542 61.5632 29.7385 61.5425 29.4493C61.4599 27.9537 59.8032 26.7969 58.3737 26.8961Z" fill="#5B164C"/>
<path d="M24.6857 24.57C24.0702 24.6361 23.4752 24.7601 22.8514 24.7229C22.0623 24.6775 21.4963 24.1486 20.765 24.004C20.4634 23.9462 20.2238 24.2354 20.3725 24.5163C21.0955 25.8838 23.8016 25.8715 24.8427 24.9543C24.9873 24.8345 24.8841 24.5494 24.6857 24.57Z" fill="#5B164C"/>
<path d="M23.5123 26.9415C22.7232 26.8382 22.0374 27.0613 21.4094 27.553C20.8103 28.0239 20.1741 28.842 20.2815 29.6517C20.3352 30.0401 20.7731 30.1888 21.0169 29.8501C21.3681 29.3543 21.5746 28.8213 21.996 28.3669C22.4009 27.933 23.0165 27.5777 23.5701 27.3753C23.8139 27.2844 23.7602 26.9745 23.5123 26.9415Z" fill="#5B164C"/>
</svg>
