<svg width="28" height="28" viewBox="0 0 28 28" fill="none" xmlns="http://www.w3.org/2000/svg">
<path fill-rule="evenodd" clip-rule="evenodd" d="M6.22202 2.35942C8.52431 0.821085 11.2311 0 14 0C17.713 0 21.274 1.475 23.8995 4.1005C26.525 6.72601 28 10.287 28 14C28 16.7689 27.1789 19.4757 25.6406 21.778C24.1022 24.0803 21.9157 25.8747 19.3576 26.9343C16.7994 27.9939 13.9845 28.2712 11.2687 27.731C8.55301 27.1908 6.05845 25.8574 4.10051 23.8995C2.14258 21.9416 0.809205 19.447 0.269012 16.7313C-0.271181 14.0155 0.00606596 11.2006 1.06569 8.64243C2.12532 6.08427 3.91973 3.89776 6.22202 2.35942ZM14 2.38298C11.7024 2.38298 9.45634 3.06431 7.54593 4.3408C5.63553 5.61729 4.14654 7.43162 3.26728 9.55436C2.38801 11.6771 2.15796 14.0129 2.6062 16.2664C3.05445 18.5198 4.16086 20.5898 5.78553 22.2145C7.4102 23.8391 9.48015 24.9456 11.7336 25.3938C13.9871 25.842 16.3229 25.612 18.4456 24.7327C20.5684 23.8535 22.3827 22.3645 23.6592 20.4541C24.9357 18.5437 25.617 16.2976 25.617 14C25.617 10.919 24.3931 7.96414 22.2145 5.78552C20.0359 3.60691 17.081 2.38298 14 2.38298ZM8.68034 6.90592C9.73796 6.19924 10.9814 5.82205 12.2534 5.82205C13.098 5.82205 13.9343 5.9884 14.7146 6.3116C15.4948 6.63481 16.2038 7.10854 16.801 7.70574C17.3982 8.30295 17.872 9.01193 18.1952 9.79222C18.5184 10.5725 18.6847 11.4088 18.6847 12.2534C18.6847 13.5254 18.3075 14.7688 17.6009 15.8264C17.5889 15.8443 17.5769 15.8621 17.5648 15.8798L20.6646 18.9795C21.1299 19.4448 21.1299 20.1993 20.6646 20.6646C20.1993 21.1299 19.4449 21.1299 18.9795 20.6646L15.8798 17.5648C15.5159 17.8133 15.1257 18.0249 14.7146 18.1952C13.5394 18.6819 12.2463 18.8093 10.9987 18.5611C9.75114 18.313 8.60519 17.7005 7.70576 16.801C6.80632 15.9016 6.19379 14.7556 5.94564 13.5081C5.69748 12.2605 5.82484 10.9674 6.31162 9.79222C6.79839 8.61704 7.62271 7.61261 8.68034 6.90592ZM12.2534 8.20503C11.4527 8.20503 10.67 8.44246 10.0042 8.8873C9.3385 9.33214 8.81961 9.96441 8.5132 10.7041C8.20679 11.4439 8.12662 12.2579 8.28283 13.0432C8.43903 13.8285 8.8246 14.5498 9.39078 15.116C9.95695 15.6822 10.6783 16.0677 11.4636 16.2239C12.2489 16.3802 13.0629 16.3 13.8026 15.9936C14.5424 15.6872 15.1746 15.1683 15.6195 14.5025C16.0643 13.8368 16.3017 13.0541 16.3017 12.2534C16.3017 11.7217 16.197 11.1953 15.9936 10.7041C15.7901 10.213 15.4919 9.76669 15.116 9.39076C14.7401 9.01484 14.2938 8.71664 13.8026 8.51319C13.3115 8.30974 12.785 8.20503 12.2534 8.20503Z" fill="#B5B5B5"/>
</svg>
